<svg width="38" height="51" viewBox="0 0 38 51" fill="none" xmlns="http://www.w3.org/2000/svg">
<g clip-path="url(#clip0_31_240)">
<path d="M9.71365 0H11.3706V8.77853C11.3706 10.109 10.2725 11.2001 8.92864 11.2001H0.00217247V9.63245L9.71365 0Z" fill="#005BAA"/>
<path d="M2.21367 7.43943V47.4442C2.21367 48.1105 2.76383 48.6539 3.43359 48.6539H34.5686C35.2405 48.6539 35.7863 48.1105 35.7863 47.4442V3.25394C35.7863 2.58763 35.2383 2.04423 34.5686 2.04423H7.65436L9.71365 0H35.558C36.9019 0 38 1.09112 38 2.42375V48.5806C38 49.9132 36.9019 51.0022 35.558 51.0022H2.442C1.10031 51.0022 0 49.9132 0 48.5806V9.63245L2.21367 7.43943Z" fill="#005BAA"/>
<path d="M13.6343 4.23724H33.4726V6.35479H13.6343V4.23724Z" fill="#005BAA"/>
<path d="M13.6343 8.67934H33.4726V10.7969H13.6343V8.67934Z" fill="#005BAA"/>
<path d="M4.57957 13.3177H33.4726V15.4352H4.57957V13.3177Z" fill="#005BAA"/>
<path d="M4.57957 17.8589H33.4726V19.9765H4.57957V17.8589Z" fill="#005BAA"/>
<path d="M4.55348 22.2967H33.4465V24.4143H4.55348V22.2967Z" fill="#005BAA"/>
<path d="M4.55348 26.7388H33.4465V28.8564H4.55348V26.7388Z" fill="#005BAA"/>
<path d="M19.0272 31.3772H33.4465V33.4947H19.0272V31.3772Z" fill="#005BAA"/>
</g>
<defs>
<clipPath id="clip0_31_240">
<rect width="38" height="51" fill="white" transform="matrix(-1 0 0 1 38 0)"/>
</clipPath>
</defs>
</svg>
