<svg width="74" height="36" viewBox="0 0 74 36" fill="none" xmlns="http://www.w3.org/2000/svg">
<g clip-path="url(#clip0_30_208)">
<path d="M61.0601 16.3486C64.9093 16.3486 68.0321 13.2607 68.0321 9.45736C68.0321 5.65397 64.9093 2.55204 61.0601 2.55204C57.2109 2.55204 54.081 5.64692 54.081 9.45736C54.081 13.2678 57.2003 16.3486 61.0601 16.3486Z" fill="#005BAA"/>
<path d="M68.958 17.1205H66.8891C66.8927 17.1734 62.7907 26.4052 62.7907 26.4052C62.78 26.4263 62.7551 26.4369 62.7408 26.4616L61.9503 19.1544L62.9082 17.1558H59.2014L60.1557 19.1544L59.3795 26.3065C58.9379 25.3371 55.2134 17.1699 55.2134 17.1241H53.0021C50.8763 17.1241 49.6408 18.1251 48.9322 19.6937C51.4674 20.5115 53.084 22.6688 53.757 26.1549C53.8318 26.1937 53.9066 26.2536 53.9422 26.3593C53.96 26.4122 53.9778 26.8669 53.9849 27.5472C54.081 28.4214 54.1416 29.352 54.1416 30.3601V36.0035H68.1354C68.1283 31.7066 68.1212 26.6131 68.1568 26.3347C68.3597 25.8694 68.812 26.102 68.812 26.3347V36.0035H74V24.7943C74 20.5608 72.9318 17.1241 68.9544 17.1241L68.958 17.1205Z" fill="#005BAA"/>
<path d="M12.9505 16.3486C16.8033 16.3486 19.9225 13.2607 19.9225 9.45736C19.9225 5.65397 16.8033 2.55556 12.9505 2.55556C9.09776 2.55556 5.97141 5.65044 5.97141 9.45736C5.97141 13.2643 9.0942 16.3486 12.9505 16.3486Z" fill="#005BAA"/>
<path d="M18.484 30.3566C18.484 27.7658 18.4911 20.1943 24.8577 19.3553C24.0922 17.9736 22.8352 17.1205 20.8554 17.1205H18.7795C18.7866 17.1734 14.6882 26.4016 14.6882 26.4016C14.6775 26.4228 14.649 26.4334 14.6383 26.458L13.8443 19.1509L14.8057 17.1523H11.0954L12.0568 19.1509L11.2805 26.3029C10.839 25.3336 7.11441 17.1664 7.11798 17.1205H4.90317C0.932912 17.1205 0.0071106 20.5573 0.0071106 24.7908V36H5.13106C5.10614 31.4916 5.09546 26.5003 5.18804 26.3311C5.35539 26.028 5.72215 26.028 5.84678 26.3523C5.91799 26.5426 5.90731 31.6714 5.88239 35.9965H18.4911V30.3531L18.484 30.3566Z" fill="#005BAA"/>
<path d="M36.3199 18.9006C41.5863 18.9006 45.8663 14.6637 45.8663 9.45736C45.8663 4.25105 41.5863 0 36.3199 0C31.0535 0 26.7592 4.244 26.7592 9.45736C26.7592 14.6707 31.0499 18.9006 36.3199 18.9006Z" fill="#005BAA"/>
<path d="M26.8411 32.0309C26.6773 32.0309 26.5135 32.1296 26.4067 32.3235C26.3533 32.4222 26.3248 33.8815 26.3177 36H27.3147C27.3076 33.9203 27.2862 32.4575 27.247 32.3482C27.1687 32.1332 27.0085 32.0309 26.8411 32.0309Z" fill="white"/>
<path d="M45.8129 31.9781C45.6598 31.9781 45.4889 32.0732 45.3785 32.3235C45.3571 32.4857 45.3465 33.9415 45.3465 36H46.2188V32.3235C46.2188 32.1508 46.0266 31.9781 45.8129 31.9781Z" fill="white"/>
<path d="M52.8312 30.3566C52.8312 24.9529 51.4745 20.5714 46.3969 20.5714H43.7512C43.7583 20.6349 38.5276 32.4116 38.5276 32.4116C38.5169 32.4363 38.4813 32.4575 38.4635 32.4821L38.1857 29.9477L37.4522 23.1587L38.6771 20.6102H33.9449L35.1698 23.1587L34.454 29.7397L34.1763 32.2812C33.6066 31.0369 28.8565 20.6278 28.8601 20.5679H26.0399C20.9765 20.5679 19.7872 24.9494 19.7872 30.3531V35.9965H26.3106C26.3141 33.878 26.3462 32.4152 26.3996 32.32C26.5064 32.1261 26.6702 32.0274 26.834 32.0274C26.9978 32.0274 27.1616 32.1296 27.2399 32.3447C27.2791 32.4539 27.3004 33.9168 27.3076 35.9965H45.3393C45.3393 33.9379 45.35 32.4786 45.3714 32.32C45.4818 32.0697 45.6491 31.9745 45.8058 31.9745C46.0194 31.9745 46.2117 32.1437 46.2117 32.32V35.9965H52.8241V30.3531L52.8312 30.3566Z" fill="#005BAA"/>
</g>
<defs>
<clipPath id="clip0_30_208">
<rect width="74" height="36" fill="white"/>
</clipPath>
</defs>
</svg>
