<svg width="463" height="273" viewBox="0 0 463 273" fill="none" xmlns="http://www.w3.org/2000/svg">
<g clip-path="url(#clip0_47_32)">
<path d="M213.551 29.3938L227.98 15.032L240.011 3.05688L253.716 16.8348L266.336 29.5278L372.552 136.334L235.332 272.91L209.006 246.439L319.766 136.2L239.877 55.8647L206.113 89.4703V36.7965L213.551 29.3938Z" fill="#005BAA" fill-opacity="0.18"/>
<path d="M303.899 29.3938L318.328 15.032L330.359 3.05688L344.06 16.8348L356.684 29.5278L462.9 136.334L325.68 272.91L299.354 246.439L410.114 136.2L330.225 55.8647L303.899 29.3938Z" fill="#005BAA" fill-opacity="0.18"/>
<path d="M26.3259 163.191L0 136.72L137.22 0.143799L163.546 26.6147L52.7857 136.854L79.0477 163.264L168.535 74.1992V126.873L105.377 189.735L132.675 217.189L243.436 106.95L269.762 133.424L159.001 243.66L132.541 269.997L106.216 243.526L67.1 204.193L52.5879 189.601L26.3259 163.191Z" fill="#005BAA" fill-opacity="0.18"/>
</g>
<defs>
<clipPath id="clip0_47_32">
<rect width="462.9" height="272.766" fill="white" transform="translate(0 0.143799)"/>
</clipPath>
</defs>
</svg>
