<svg width="136" height="34" viewBox="0 0 136 34" fill="none" xmlns="http://www.w3.org/2000/svg">
<path d="M26.6739 3.64688L28.4756 1.85518L29.9781 0.362091L31.6903 2.0809L33.2658 3.66334L46.5345 16.9765L29.3941 34L26.1063 30.7011L39.9402 16.96L29.9616 6.94577L25.7437 11.1335V4.56859L26.6739 3.64688Z" fill="#005BAA"/>
<path d="M37.9572 3.64688L39.7612 1.85518L41.2638 0.362091L42.9759 2.0809L44.5515 3.66334L57.8178 16.9765L40.6797 34L37.3896 30.7011L51.2259 16.96L41.2473 6.94577L37.9572 3.64688Z" fill="#005BAA"/>
<path d="M3.28772 20.3248L0 17.0235L17.1404 0L20.4281 3.29889L6.59428 17.0423L9.87258 20.3342L21.0499 9.23126V15.7961L13.1627 23.6331L16.5728 27.0542L30.4067 13.3131L33.6944 16.6144L19.8606 30.3555L16.554 33.6379L13.2663 30.339L8.3818 25.4342L6.56838 23.6166L3.28772 20.3248Z" fill="#005BAA"/>
<path d="M62.8151 7.90041C62.7444 7.90041 62.6832 7.87454 62.6337 7.82516C62.5843 7.77579 62.5583 7.71465 62.5583 7.64411V0.674819C62.5583 0.597225 62.5843 0.531388 62.6337 0.482011C62.6832 0.432633 62.7444 0.406769 62.8151 0.406769H67.5323C67.61 0.406769 67.676 0.432633 67.7254 0.482011C67.7749 0.531388 67.8008 0.597225 67.8008 0.674819V1.38021C67.8008 1.45075 67.7749 1.51189 67.7254 1.56126C67.676 1.61064 67.61 1.63651 67.5323 1.63651H64.0044V3.53167H67.2968C67.3745 3.53167 67.4405 3.55518 67.4899 3.6022C67.5394 3.64923 67.5653 3.71037 67.5653 3.79031V4.45338C67.5653 4.53097 67.5394 4.59446 67.4899 4.64149C67.4405 4.68851 67.3745 4.71202 67.2968 4.71202H64.0044V6.67067H67.6171C67.6948 6.67067 67.7608 6.69653 67.8102 6.74591C67.8597 6.79529 67.8856 6.86113 67.8856 6.93872V7.64411C67.8856 7.71465 67.8597 7.77579 67.8102 7.82516C67.7608 7.87454 67.6948 7.90041 67.6171 7.90041H62.8127H62.8151Z" fill="#005BAA"/>
<path d="M68.7664 7.90041C68.7098 7.90041 68.658 7.87924 68.6109 7.83692C68.5638 7.7946 68.5403 7.74052 68.5403 7.67703C68.5403 7.64882 68.5473 7.6159 68.5615 7.58063L71.145 0.674819C71.1662 0.604279 71.2086 0.540794 71.2675 0.486713C71.3287 0.432633 71.4111 0.406769 71.5195 0.406769H72.6876C72.796 0.406769 72.876 0.432633 72.9349 0.486713C72.9914 0.540794 73.0338 0.601928 73.0644 0.674819L75.648 7.58063C75.655 7.6159 75.6574 7.64882 75.6574 7.67703C75.6574 7.74052 75.6362 7.7946 75.5938 7.83692C75.5514 7.87924 75.4996 7.90041 75.4431 7.90041H74.5105C74.4092 7.90041 74.3362 7.87689 74.2914 7.82987C74.2443 7.78284 74.2137 7.73817 74.1996 7.69584L73.6956 6.39086H70.5115L70.0075 7.69584C69.9934 7.73817 69.9628 7.78284 69.9157 7.82987C69.8686 7.87689 69.7956 7.90041 69.6966 7.90041H68.764H68.7664ZM70.8907 5.15877H73.3235L72.1012 1.85048L70.8907 5.15877Z" fill="#005BAA"/>
<path d="M79.1573 8.00857C78.4931 8.00857 77.9373 7.90982 77.4898 7.71466C77.0424 7.5195 76.7032 7.26085 76.4701 6.94343C76.2369 6.626 76.1145 6.29211 76.1003 5.94177C76.1003 5.87828 76.1215 5.8242 76.1639 5.78188C76.2063 5.73955 76.2605 5.71839 76.3241 5.71839H77.2779C77.3697 5.71839 77.4404 5.7372 77.4875 5.77717C77.5346 5.81715 77.5746 5.86417 77.61 5.9206C77.6524 6.05698 77.7348 6.19101 77.8572 6.32268C77.9797 6.45435 78.1446 6.56251 78.3565 6.64951C78.5661 6.73416 78.8346 6.77883 79.1549 6.77883C79.6707 6.77883 80.0546 6.69419 80.3089 6.52254C80.5633 6.35089 80.6904 6.12047 80.6904 5.82655C80.6904 5.61964 80.6221 5.45269 80.4855 5.32807C80.3489 5.20345 80.1417 5.08824 79.8591 4.98478C79.5765 4.88132 79.202 4.77316 78.7381 4.65795C78.2011 4.52863 77.7536 4.37344 77.3933 4.19239C77.033 4.01134 76.7598 3.78091 76.5784 3.5011C76.3971 3.22365 76.3052 2.8686 76.3052 2.44066C76.3052 2.01272 76.4183 1.66002 76.642 1.33789C76.8657 1.01576 77.1884 0.764173 77.6076 0.578419C78.0268 0.392666 78.5237 0.300964 79.1031 0.300964C79.5671 0.300964 79.9792 0.36445 80.3372 0.489069C80.6951 0.613689 80.9919 0.778281 81.2274 0.980494C81.4629 1.18271 81.6443 1.40138 81.7691 1.63416C81.8939 1.86694 81.9598 2.09267 81.9669 2.31369C81.9669 2.37012 81.9481 2.42185 81.908 2.46888C81.868 2.5159 81.8138 2.53942 81.7408 2.53942H80.7446C80.6881 2.53942 80.6292 2.52531 80.5727 2.49709C80.5162 2.46888 80.4691 2.4148 80.4337 2.3372C80.3913 2.11618 80.2524 1.92572 80.0145 1.77054C79.779 1.613 79.4752 1.5354 79.1031 1.5354C78.731 1.5354 78.406 1.60594 78.1705 1.74937C77.935 1.8928 77.8172 2.11383 77.8172 2.41244C77.8172 2.61231 77.8761 2.77925 77.9938 2.91092C78.1116 3.0426 78.3 3.16016 78.5614 3.25892C78.8228 3.35767 79.1667 3.46583 79.5953 3.58105C80.2029 3.71742 80.6998 3.87496 81.0861 4.05131C81.4723 4.23001 81.7549 4.45574 81.9339 4.73084C82.1129 5.00594 82.2024 5.35394 82.2024 5.77482C82.2024 6.24509 82.0752 6.64716 81.8209 6.9787C81.5665 7.31023 81.2109 7.56652 80.754 7.74287C80.2971 7.92157 79.7625 8.01092 79.1549 8.01092L79.1573 8.00857Z" fill="#005BAA"/>
<path d="M85.2593 7.90041C85.1887 7.90041 85.1275 7.87454 85.078 7.82516C85.0285 7.77579 85.0026 7.71465 85.0026 7.64411V1.7235H83.0196C82.949 1.7235 82.8878 1.69764 82.8383 1.64826C82.7888 1.59888 82.7629 1.53775 82.7629 1.46721V0.674819C82.7629 0.597225 82.7888 0.531388 82.8383 0.482011C82.8878 0.432633 82.949 0.406769 83.0196 0.406769H88.4882C88.5659 0.406769 88.6318 0.432633 88.6813 0.482011C88.7308 0.531388 88.7567 0.597225 88.7567 0.674819V1.46721C88.7567 1.53775 88.7308 1.59888 88.6813 1.64826C88.6318 1.69764 88.5659 1.7235 88.4882 1.7235H86.5146V7.64411C86.5146 7.71465 86.4887 7.77579 86.4392 7.82516C86.3898 7.87454 86.3238 7.90041 86.2461 7.90041H85.2593Z" fill="#005BAA"/>
<path d="M90.0944 7.90041C90.0237 7.90041 89.9625 7.87454 89.913 7.82516C89.8636 7.77579 89.8376 7.71465 89.8376 7.64411V0.674819C89.8376 0.597225 89.8636 0.531388 89.913 0.482011C89.9625 0.432633 90.0237 0.406769 90.0944 0.406769H94.8116C94.8893 0.406769 94.9553 0.432633 95.0047 0.482011C95.0542 0.531388 95.0801 0.597225 95.0801 0.674819V1.38021C95.0801 1.45075 95.0542 1.51189 95.0047 1.56126C94.9553 1.61064 94.8893 1.63651 94.8116 1.63651H91.2837V3.53167H94.5761C94.6538 3.53167 94.7198 3.55518 94.7692 3.6022C94.8187 3.64923 94.8446 3.71037 94.8446 3.79031V4.45338C94.8446 4.53097 94.8187 4.59446 94.7692 4.64149C94.7198 4.68851 94.6538 4.71202 94.5761 4.71202H91.2837V6.67067H94.8964C94.9741 6.67067 95.0401 6.69653 95.0895 6.74591C95.139 6.79529 95.1649 6.86113 95.1649 6.93872V7.64411C95.1649 7.71465 95.139 7.77579 95.0895 7.82516C95.0401 7.87454 94.9741 7.90041 94.8964 7.90041H90.092H90.0944Z" fill="#005BAA"/>
<path d="M96.764 7.90041C96.6934 7.90041 96.6321 7.87454 96.5827 7.82516C96.5332 7.77579 96.5073 7.71465 96.5073 7.64411V0.674819C96.5073 0.597225 96.5332 0.531388 96.5827 0.482011C96.6321 0.432633 96.6934 0.406769 96.764 0.406769H99.5407C100.405 0.406769 101.088 0.606631 101.59 1.00635C102.089 1.40608 102.341 1.98685 102.341 2.75103C102.341 3.28007 102.211 3.71742 101.95 4.06776C101.689 4.41811 101.34 4.67205 100.904 4.82724L102.47 7.55711C102.492 7.59944 102.503 7.63941 102.503 7.67468C102.503 7.73817 102.48 7.79225 102.433 7.83457C102.386 7.87689 102.334 7.89805 102.277 7.89805H101.302C101.18 7.89805 101.088 7.86514 101.024 7.80165C100.961 7.73817 100.909 7.67233 100.874 7.60884L99.4912 5.07178H98.0005V7.64176C98.0005 7.7123 97.9769 7.77344 97.9298 7.82281C97.8827 7.87219 97.8215 7.89805 97.7414 7.89805H96.7664L96.764 7.90041ZM97.9981 3.8632H99.5101C99.9458 3.8632 100.271 3.76445 100.485 3.56929C100.699 3.37413 100.808 3.09667 100.808 2.73927C100.808 2.38187 100.702 2.10207 100.492 1.89985C100.28 1.69529 99.9528 1.59418 99.5101 1.59418H97.9981V3.8632Z" fill="#005BAA"/>
<path d="M103.98 7.90041C103.909 7.90041 103.848 7.87454 103.799 7.82516C103.749 7.77579 103.723 7.71465 103.723 7.64411V0.674819C103.723 0.597225 103.749 0.531388 103.799 0.482011C103.848 0.432633 103.909 0.406769 103.98 0.406769H104.806C104.905 0.406769 104.981 0.430282 105.026 0.477308C105.073 0.524334 105.103 0.557253 105.117 0.578415L108.205 5.3751V0.674819C108.205 0.597225 108.228 0.531388 108.276 0.482011C108.323 0.432633 108.384 0.406769 108.464 0.406769H109.364C109.441 0.406769 109.507 0.432633 109.557 0.482011C109.606 0.531388 109.632 0.597225 109.632 0.674819V7.63471C109.632 7.7123 109.606 7.77814 109.557 7.82752C109.507 7.87689 109.446 7.90276 109.375 7.90276H108.539C108.438 7.90276 108.367 7.87689 108.325 7.82752C108.283 7.77814 108.25 7.74522 108.228 7.73111L105.15 3.04259V7.64646C105.15 7.717 105.124 7.77814 105.075 7.82752C105.026 7.87689 104.96 7.90276 104.882 7.90276H103.982L103.98 7.90041Z" fill="#005BAA"/>
<path d="M65.4529 20.8538C64.7887 20.8538 64.2258 20.7386 63.7642 20.5058C63.3026 20.273 62.9517 19.9415 62.7068 19.5112C62.4642 19.0785 62.3276 18.5613 62.2994 17.9546C62.2923 17.6631 62.2876 17.348 62.2876 17.0117C62.2876 16.6755 62.2899 16.3557 62.2994 16.0477C62.3276 15.4481 62.4666 14.9308 62.7115 14.4958C62.9588 14.0608 63.3121 13.727 63.7737 13.4942C64.2353 13.2614 64.7934 13.1462 65.4505 13.1462C65.9356 13.1462 66.3737 13.2097 66.7599 13.339C67.1462 13.4683 67.4735 13.6447 67.7467 13.868C68.0176 14.0938 68.2295 14.3548 68.3802 14.6557C68.531 14.9543 68.6087 15.2812 68.6158 15.6292C68.6228 15.6927 68.604 15.7467 68.5569 15.7891C68.5098 15.8314 68.4556 15.8525 68.3897 15.8525H67.3699C67.2922 15.8525 67.2262 15.8337 67.1768 15.7938C67.1273 15.7538 67.092 15.6879 67.0684 15.5962C66.953 15.126 66.7576 14.8039 66.4797 14.6322C66.2018 14.4606 65.8532 14.3759 65.4387 14.3759C64.9606 14.3759 64.5768 14.5099 64.2918 14.778C64.0068 15.046 63.8514 15.4857 63.8302 16.0994C63.809 16.6849 63.809 17.2845 63.8302 17.8982C63.8514 18.5119 64.0045 18.9539 64.2918 19.2196C64.5768 19.4877 64.9606 19.6217 65.4387 19.6217C65.8532 19.6217 66.1994 19.5347 66.4797 19.3584C66.7576 19.1844 66.9554 18.8646 67.0684 18.399C67.0896 18.3003 67.125 18.2321 67.1768 18.1968C67.2262 18.1615 67.2922 18.1427 67.3699 18.1427H68.3897C68.4533 18.1427 68.5098 18.1639 68.5569 18.2062C68.604 18.2485 68.6228 18.3026 68.6158 18.3661C68.6087 18.7164 68.531 19.0409 68.3802 19.3395C68.2295 19.6405 68.0199 19.9015 67.7467 20.1272C67.4759 20.353 67.1462 20.5293 66.7599 20.6563C66.3737 20.7856 65.938 20.8491 65.4505 20.8491L65.4529 20.8538Z" fill="#005BAA"/>
<path d="M72.7772 20.8538C72.1413 20.8538 71.5949 20.748 71.1357 20.5387C70.6788 20.3294 70.3208 20.0026 70.0641 19.5653C69.8074 19.1256 69.6685 18.5777 69.6449 17.9217C69.6379 17.616 69.6355 17.3127 69.6355 17.0117C69.6355 16.7108 69.6379 16.4051 69.6449 16.09C69.6661 15.4411 69.8098 14.8979 70.0736 14.4629C70.3373 14.0279 70.7 13.6987 71.1616 13.4777C71.6232 13.2567 72.1602 13.1462 72.7749 13.1462C73.3895 13.1462 73.9289 13.2567 74.3952 13.4777C74.8591 13.6987 75.2242 14.0279 75.4879 14.4629C75.7517 14.8979 75.8954 15.4411 75.9166 16.09C75.9307 16.4051 75.9378 16.7108 75.9378 17.0117C75.9378 17.3127 75.9307 17.616 75.9166 17.9217C75.8954 18.5777 75.7564 19.1256 75.4973 19.5653C75.2406 20.005 74.8803 20.3294 74.4187 20.5387C73.9571 20.7503 73.4084 20.8538 72.7725 20.8538H72.7772ZM72.7772 19.6217C73.2412 19.6217 73.6203 19.4853 73.9147 19.2102C74.2068 18.9351 74.3645 18.4884 74.3857 17.8676C74.3999 17.5549 74.4069 17.2633 74.4069 16.9953C74.4069 16.7272 74.3999 16.4404 74.3857 16.1323C74.3716 15.7185 74.2939 15.3823 74.1549 15.1213C74.016 14.8603 73.8276 14.6722 73.5921 14.5546C73.3566 14.4371 73.0834 14.3783 72.7772 14.3783C72.471 14.3783 72.2096 14.4371 71.9718 14.5546C71.7339 14.6722 71.5478 14.8626 71.4089 15.1213C71.2699 15.3823 71.1922 15.7185 71.1781 16.1323C71.171 16.4404 71.1663 16.7272 71.1663 16.9953C71.1663 17.2633 71.1687 17.5549 71.1781 17.8676C71.1993 18.4884 71.3571 18.9375 71.6491 19.2102C71.9411 19.4853 72.318 19.6217 72.7749 19.6217H72.7772Z" fill="#005BAA"/>
<path d="M77.6005 20.748C77.5298 20.748 77.4686 20.7221 77.4191 20.6728C77.3697 20.6234 77.3438 20.5622 77.3438 20.4917V13.5224C77.3438 13.4448 77.3697 13.379 77.4191 13.3296C77.4686 13.2802 77.5298 13.2544 77.6005 13.2544H80.3771C81.2414 13.2544 81.9244 13.4542 82.4261 13.8539C82.9253 14.2537 83.1773 14.8344 83.1773 15.5986C83.1773 16.1277 83.0478 16.565 82.7864 16.9154C82.525 17.2657 82.1764 17.5196 81.7407 17.6748L83.3069 20.4047C83.3281 20.447 83.3398 20.487 83.3398 20.5223C83.3398 20.5858 83.3163 20.6398 83.2692 20.6822C83.2221 20.7245 83.1703 20.7457 83.1137 20.7457H82.1387C82.0163 20.7457 81.9244 20.7127 81.8608 20.6492C81.7972 20.5858 81.7454 20.5199 81.7101 20.4564L80.3277 17.9194H78.8369V20.4894C78.8369 20.5599 78.8133 20.621 78.7662 20.6704C78.7191 20.7198 78.6579 20.7457 78.5778 20.7457H77.6028L77.6005 20.748ZM78.8345 16.7108H80.3465C80.7822 16.7108 81.1072 16.612 81.3215 16.4169C81.5358 16.2217 81.6442 15.9443 81.6442 15.5869C81.6442 15.2295 81.5382 14.9497 81.3286 14.7474C81.1166 14.5429 80.7893 14.4418 80.3465 14.4418H78.8345V16.7108Z" fill="#005BAA"/>
<path d="M84.819 20.748C84.7483 20.748 84.6871 20.7221 84.6376 20.6728C84.5882 20.6234 84.5623 20.5622 84.5623 20.4917V13.5224C84.5623 13.4448 84.5882 13.379 84.6376 13.3296C84.6871 13.2802 84.7483 13.2544 84.819 13.2544H87.6922C88.2503 13.2544 88.7355 13.3414 89.15 13.5177C89.5645 13.6917 89.8871 13.9574 90.1156 14.3101C90.344 14.6628 90.4594 15.1048 90.4594 15.6315C90.4594 16.1582 90.344 16.6073 90.1156 16.953C89.8871 17.2986 89.5645 17.5573 89.15 17.7289C88.7355 17.9006 88.2503 17.9852 87.6922 17.9852H86.0954V20.4894C86.0954 20.5599 86.0719 20.621 86.0248 20.6704C85.9777 20.7198 85.9164 20.7457 85.8364 20.7457H84.8166L84.819 20.748ZM86.0742 16.7978H87.6404C88.0549 16.7978 88.3728 16.699 88.5942 16.5039C88.8156 16.3087 88.9263 16.0172 88.9263 15.6315C88.9263 15.2741 88.8226 14.9873 88.6154 14.7686C88.4081 14.5523 88.0831 14.4418 87.6404 14.4418H86.0742V16.7978Z" fill="#005BAA"/>
<path d="M94.5126 20.8538C93.8767 20.8538 93.3303 20.748 92.871 20.5387C92.4142 20.3294 92.0562 20.0026 91.7995 19.5653C91.5428 19.1256 91.4038 18.5777 91.3803 17.9217C91.3732 17.616 91.3708 17.3127 91.3708 17.0117C91.3708 16.7108 91.3732 16.4051 91.3803 16.09C91.4015 15.4411 91.5451 14.8979 91.8089 14.4629C92.0727 14.0279 92.4354 13.6987 92.897 13.4777C93.3586 13.2567 93.8955 13.1462 94.5102 13.1462C95.1249 13.1462 95.6642 13.2567 96.1305 13.4777C96.5945 13.6987 96.9595 14.0279 97.2233 14.4629C97.487 14.8979 97.6307 15.4411 97.6519 16.09C97.666 16.4051 97.6731 16.7108 97.6731 17.0117C97.6731 17.3127 97.666 17.616 97.6519 17.9217C97.6307 18.5777 97.4918 19.1256 97.2327 19.5653C96.976 20.005 96.6157 20.3294 96.1541 20.5387C95.6925 20.7503 95.1437 20.8538 94.5078 20.8538H94.5126ZM94.5126 19.6217C94.9765 19.6217 95.3557 19.4853 95.6501 19.2102C95.9421 18.9351 96.0999 18.4884 96.1211 17.8676C96.1352 17.5549 96.1423 17.2633 96.1423 16.9953C96.1423 16.7272 96.1352 16.4404 96.1211 16.1323C96.107 15.7185 96.0292 15.3823 95.8903 15.1213C95.7513 14.8603 95.5629 14.6722 95.3274 14.5546C95.0919 14.4371 94.8187 14.3783 94.5126 14.3783C94.2064 14.3783 93.945 14.4371 93.7071 14.5546C93.4692 14.6722 93.2832 14.8626 93.1442 15.1213C93.0053 15.3823 92.9276 15.7185 92.9134 16.1323C92.9064 16.4404 92.9017 16.7272 92.9017 16.9953C92.9017 17.2633 92.904 17.5549 92.9134 17.8676C92.9346 18.4884 93.0924 18.9375 93.3845 19.2102C93.6765 19.4853 94.0533 19.6217 94.5102 19.6217H94.5126Z" fill="#005BAA"/>
<path d="M99.338 20.748C99.2674 20.748 99.2061 20.7221 99.1567 20.6728C99.1072 20.6234 99.0813 20.5622 99.0813 20.4917V13.5224C99.0813 13.4448 99.1072 13.379 99.1567 13.3296C99.2061 13.2802 99.2674 13.2544 99.338 13.2544H102.115C102.979 13.2544 103.662 13.4542 104.164 13.8539C104.663 14.2537 104.915 14.8344 104.915 15.5986C104.915 16.1277 104.785 16.565 104.524 16.9154C104.263 17.2657 103.914 17.5196 103.478 17.6748L105.044 20.4047C105.066 20.447 105.077 20.487 105.077 20.5223C105.077 20.5858 105.054 20.6398 105.007 20.6822C104.96 20.7245 104.908 20.7457 104.851 20.7457H103.876C103.754 20.7457 103.662 20.7127 103.598 20.6492C103.535 20.5858 103.483 20.5199 103.448 20.4564L102.065 17.9194H100.574V20.4894C100.574 20.5599 100.551 20.621 100.504 20.6704C100.457 20.7198 100.395 20.7457 100.315 20.7457H99.3404L99.338 20.748ZM100.572 16.7108H102.084C102.52 16.7108 102.845 16.612 103.059 16.4169C103.273 16.2217 103.382 15.9443 103.382 15.5869C103.382 15.2295 103.276 14.9497 103.066 14.7474C102.854 14.5429 102.527 14.4418 102.084 14.4418H100.572V16.7108Z" fill="#005BAA"/>
<path d="M105.836 20.748C105.779 20.748 105.727 20.7268 105.68 20.6845C105.633 20.6422 105.61 20.5881 105.61 20.5246C105.61 20.4964 105.617 20.4635 105.631 20.4282L108.214 13.5224C108.236 13.4519 108.278 13.3884 108.337 13.3343C108.398 13.2802 108.48 13.2544 108.589 13.2544H109.757C109.865 13.2544 109.945 13.2802 110.004 13.3343C110.061 13.3884 110.103 13.4495 110.134 13.5224L112.717 20.4282C112.724 20.4635 112.727 20.4964 112.727 20.5246C112.727 20.5881 112.706 20.6422 112.663 20.6845C112.621 20.7268 112.569 20.748 112.512 20.748H111.58C111.479 20.748 111.406 20.7245 111.361 20.6775C111.314 20.6304 111.283 20.5858 111.269 20.5434L110.765 19.2385H107.581L107.077 20.5434C107.063 20.5858 107.032 20.6304 106.985 20.6775C106.938 20.7245 106.865 20.748 106.766 20.748H105.833H105.836ZM107.96 18.0064H110.393L109.171 14.6981L107.96 18.0064Z" fill="#005BAA"/>
<path d="M114.853 20.748C114.783 20.748 114.721 20.7221 114.672 20.6728C114.623 20.6234 114.597 20.5622 114.597 20.4917V14.5711H112.614C112.543 14.5711 112.482 14.5452 112.432 14.4959C112.383 14.4465 112.357 14.3853 112.357 14.3148V13.5224C112.357 13.4448 112.383 13.379 112.432 13.3296C112.482 13.2802 112.543 13.2544 112.614 13.2544H118.082C118.16 13.2544 118.226 13.2802 118.275 13.3296C118.325 13.379 118.351 13.4448 118.351 13.5224V14.3148C118.351 14.3853 118.325 14.4465 118.275 14.4959C118.226 14.5452 118.16 14.5711 118.082 14.5711H116.109V20.4917C116.109 20.5622 116.083 20.6234 116.033 20.6728C115.984 20.7221 115.918 20.748 115.84 20.748H114.853Z" fill="#005BAA"/>
<path d="M119.688 20.748C119.618 20.748 119.556 20.7221 119.507 20.6728C119.458 20.6234 119.432 20.5622 119.432 20.4917V13.5107C119.432 13.4401 119.458 13.379 119.507 13.3296C119.556 13.2802 119.618 13.2544 119.688 13.2544H120.696C120.774 13.2544 120.838 13.2802 120.885 13.3296C120.932 13.379 120.955 13.4401 120.955 13.5107V20.4917C120.955 20.5622 120.932 20.6234 120.885 20.6728C120.838 20.7221 120.776 20.748 120.696 20.748H119.688Z" fill="#005BAA"/>
<path d="M125.522 20.8538C124.886 20.8538 124.34 20.748 123.881 20.5387C123.424 20.3294 123.066 20.0026 122.809 19.5653C122.552 19.1256 122.413 18.5777 122.39 17.9217C122.383 17.616 122.38 17.3127 122.38 17.0117C122.38 16.7108 122.383 16.4051 122.39 16.09C122.411 15.4411 122.555 14.8979 122.818 14.4629C123.082 14.0279 123.445 13.6987 123.906 13.4777C124.368 13.2567 124.905 13.1462 125.52 13.1462C126.134 13.1462 126.674 13.2567 127.14 13.4777C127.604 13.6987 127.969 14.0279 128.233 14.4629C128.497 14.8979 128.64 15.4411 128.661 16.09C128.676 16.4051 128.683 16.7108 128.683 17.0117C128.683 17.3127 128.676 17.616 128.661 17.9217C128.64 18.5777 128.501 19.1256 128.242 19.5653C127.986 20.005 127.625 20.3294 127.164 20.5387C126.702 20.7503 126.153 20.8538 125.517 20.8538H125.522ZM125.522 19.6217C125.986 19.6217 126.365 19.4853 126.66 19.2102C126.952 18.9351 127.109 18.4884 127.131 17.8676C127.145 17.5549 127.152 17.2633 127.152 16.9953C127.152 16.7272 127.145 16.4404 127.131 16.1323C127.116 15.7185 127.039 15.3823 126.9 15.1213C126.761 14.8603 126.572 14.6722 126.337 14.5546C126.101 14.4371 125.828 14.3783 125.522 14.3783C125.216 14.3783 124.954 14.4371 124.717 14.5546C124.479 14.6722 124.293 14.8626 124.154 15.1213C124.015 15.3823 123.937 15.7185 123.923 16.1323C123.916 16.4404 123.911 16.7272 123.911 16.9953C123.911 17.2633 123.914 17.5549 123.923 17.8676C123.944 18.4884 124.102 18.9375 124.394 19.2102C124.686 19.4853 125.063 19.6217 125.52 19.6217H125.522Z" fill="#005BAA"/>
<path d="M130.348 20.748C130.277 20.748 130.216 20.7221 130.166 20.6728C130.117 20.6234 130.091 20.5622 130.091 20.4917V13.5224C130.091 13.4448 130.117 13.379 130.166 13.3296C130.216 13.2802 130.277 13.2544 130.348 13.2544H131.174C131.273 13.2544 131.349 13.2779 131.393 13.3249C131.441 13.3719 131.471 13.4048 131.485 13.426L134.573 18.2227V13.5224C134.573 13.4448 134.596 13.379 134.643 13.3296C134.691 13.2802 134.752 13.2544 134.832 13.2544H135.732C135.809 13.2544 135.875 13.2802 135.925 13.3296C135.974 13.379 136 13.4448 136 13.5224V20.4823C136 20.5599 135.974 20.6257 135.925 20.6751C135.875 20.7245 135.814 20.7504 135.743 20.7504H134.907C134.806 20.7504 134.735 20.7245 134.693 20.6751C134.651 20.6257 134.618 20.5928 134.596 20.5787L131.518 15.8902V20.4941C131.518 20.5646 131.492 20.6257 131.443 20.6751C131.393 20.7245 131.327 20.7504 131.25 20.7504H130.35L130.348 20.748Z" fill="#005BAA"/>
<path d="M65.4529 33.7014C64.7887 33.7014 64.2258 33.5862 63.7642 33.3534C63.3026 33.1206 62.9517 32.7891 62.7068 32.3588C62.4642 31.9261 62.3276 31.4088 62.2994 30.8022C62.2923 30.5106 62.2876 30.1956 62.2876 29.8593C62.2876 29.5231 62.2899 29.2033 62.2994 28.8953C62.3276 28.2957 62.4666 27.7784 62.7115 27.3434C62.9588 26.9084 63.3121 26.5745 63.7737 26.3418C64.2353 26.109 64.7934 25.9938 65.4505 25.9938C65.9356 25.9938 66.3737 26.0573 66.7599 26.1866C67.1462 26.3159 67.4735 26.4923 67.7467 26.7156C68.0176 26.9414 68.2295 27.2023 68.3802 27.5033C68.531 27.8019 68.6087 28.1288 68.6158 28.4768C68.6228 28.5402 68.604 28.5943 68.5569 28.6367C68.5098 28.679 68.4556 28.7001 68.3897 28.7001H67.3699C67.2922 28.7001 67.2262 28.6813 67.1768 28.6414C67.1273 28.6014 67.092 28.5355 67.0684 28.4438C66.953 27.9736 66.7576 27.6515 66.4797 27.4798C66.2018 27.3082 65.8532 27.2235 65.4387 27.2235C64.9606 27.2235 64.5768 27.3575 64.2918 27.6256C64.0068 27.8936 63.8514 28.3333 63.8302 28.947C63.809 29.5325 63.809 30.1321 63.8302 30.7458C63.8514 31.3595 64.0045 31.8015 64.2918 32.0672C64.5768 32.3353 64.9606 32.4693 65.4387 32.4693C65.8532 32.4693 66.1994 32.3823 66.4797 32.2059C66.7576 32.0319 66.9554 31.7122 67.0684 31.2466C67.0896 31.1479 67.125 31.0797 67.1768 31.0444C67.2262 31.0091 67.2922 30.9903 67.3699 30.9903H68.3897C68.4533 30.9903 68.5098 31.0115 68.5569 31.0538C68.604 31.0961 68.6228 31.1502 68.6158 31.2137C68.6087 31.564 68.531 31.8885 68.3802 32.1871C68.2295 32.4881 68.0199 32.7491 67.7467 32.9748C67.4759 33.2006 67.1462 33.3769 66.7599 33.5039C66.3737 33.6332 65.938 33.6967 65.4505 33.6967L65.4529 33.7014Z" fill="#005BAA"/>
<path d="M70.149 33.5956C70.0784 33.5956 70.0172 33.5697 69.9677 33.5203C69.9182 33.4709 69.8923 33.4098 69.8923 33.3393V26.37C69.8923 26.2924 69.9182 26.2265 69.9677 26.1772C70.0172 26.1278 70.0784 26.1019 70.149 26.1019H72.9257C73.79 26.1019 74.473 26.3018 74.9746 26.7015C75.4739 27.1012 75.7259 27.682 75.7259 28.4462C75.7259 28.9752 75.5964 29.4126 75.335 29.7629C75.0736 30.1133 74.725 30.3672 74.2893 30.5224L75.8555 33.2523C75.8766 33.2946 75.8884 33.3346 75.8884 33.3698C75.8884 33.4333 75.8649 33.4874 75.8178 33.5297C75.7707 33.5721 75.7189 33.5932 75.6623 33.5932H74.6873C74.5649 33.5932 74.473 33.5603 74.4094 33.4968C74.3458 33.4333 74.294 33.3675 74.2587 33.304L72.8762 30.7669H71.3855V33.3369C71.3855 33.4075 71.3619 33.4686 71.3148 33.518C71.2677 33.5674 71.2065 33.5932 71.1264 33.5932H70.1514L70.149 33.5956ZM71.3831 29.5584H72.8951C73.3308 29.5584 73.6558 29.4596 73.8701 29.2644C74.0844 29.0693 74.1928 28.7918 74.1928 28.4344C74.1928 28.077 74.0868 27.7972 73.8772 27.595C73.6652 27.3904 73.3378 27.2893 72.8951 27.2893H71.3831V29.5584Z" fill="#005BAA"/>
<path d="M79.972 33.7014C79.3361 33.7014 78.7898 33.5956 78.3305 33.3863C77.8736 33.177 77.5157 32.8502 77.2589 32.4129C77.0022 31.9732 76.8633 31.4253 76.8397 30.7693C76.8327 30.4636 76.8303 30.1603 76.8303 29.8593C76.8303 29.5584 76.8327 29.2527 76.8397 28.9376C76.8609 28.2887 77.0046 27.7455 77.2684 27.3105C77.5321 26.8755 77.8948 26.5463 78.3564 26.3253C78.818 26.1043 79.355 25.9938 79.9697 25.9938C80.5843 25.9938 81.1237 26.1043 81.59 26.3253C82.0539 26.5463 82.419 26.8755 82.6827 27.3105C82.9465 27.7455 83.0902 28.2887 83.1114 28.9376C83.1255 29.2527 83.1326 29.5584 83.1326 29.8593C83.1326 30.1603 83.1255 30.4636 83.1114 30.7693C83.0902 31.4253 82.9512 31.9732 82.6922 32.4129C82.4355 32.8526 82.0751 33.177 81.6135 33.3863C81.1519 33.5979 80.6032 33.7014 79.9673 33.7014H79.972ZM79.972 32.4693C80.436 32.4693 80.8151 32.3329 81.1095 32.0578C81.4016 31.7827 81.5594 31.336 81.5806 30.7152C81.5947 30.4025 81.6018 30.1109 81.6018 29.8429C81.6018 29.5748 81.5947 29.288 81.5806 28.9799C81.5664 28.5661 81.4887 28.2299 81.3498 27.9689C81.2108 27.7079 81.0224 27.5198 80.7869 27.4022C80.5514 27.2846 80.2782 27.2259 79.972 27.2259C79.6659 27.2259 79.4044 27.2846 79.1666 27.4022C78.9287 27.5198 78.7427 27.7102 78.6037 27.9689C78.4648 28.2299 78.387 28.5661 78.3729 28.9799C78.3658 29.288 78.3611 29.5748 78.3611 29.8429C78.3611 30.1109 78.3635 30.4025 78.3729 30.7152C78.3941 31.336 78.5519 31.7851 78.8439 32.0578C79.136 32.3329 79.5128 32.4693 79.9697 32.4693H79.972Z" fill="#005BAA"/>
<path d="M83.9287 33.5956C83.8722 33.5956 83.8204 33.5744 83.7733 33.5321C83.7262 33.4898 83.7026 33.4357 83.7026 33.3722C83.7026 33.344 83.7097 33.3111 83.7238 33.2758L86.3074 26.37C86.3286 26.2994 86.371 26.236 86.4298 26.1819C86.4911 26.1278 86.5735 26.1019 86.6818 26.1019H87.85C87.9583 26.1019 88.0384 26.1278 88.0973 26.1819C88.1538 26.236 88.1962 26.2971 88.2268 26.37L90.8103 33.2758C90.8174 33.3111 90.8198 33.344 90.8198 33.3722C90.8198 33.4357 90.7986 33.4898 90.7562 33.5321C90.7138 33.5744 90.662 33.5956 90.6054 33.5956H89.6728C89.5715 33.5956 89.4985 33.5721 89.4538 33.525C89.4067 33.478 89.3761 33.4333 89.3619 33.391L88.8579 32.086H85.6739L85.1699 33.391C85.1557 33.4333 85.1251 33.478 85.078 33.525C85.0309 33.5721 84.9579 33.5956 84.859 33.5956H83.9264H83.9287ZM86.053 30.8539H88.4858L87.2635 27.5456L86.053 30.8539Z" fill="#005BAA"/>
<path d="M92.9464 33.5956C92.8757 33.5956 92.8145 33.5697 92.765 33.5203C92.7156 33.4709 92.6897 33.4098 92.6897 33.3393V27.4187H90.7067C90.636 27.4187 90.5748 27.3928 90.5253 27.3434C90.4759 27.294 90.45 27.2329 90.45 27.1624V26.37C90.45 26.2924 90.4759 26.2265 90.5253 26.1772C90.5748 26.1278 90.636 26.1019 90.7067 26.1019H96.1752C96.2529 26.1019 96.3189 26.1278 96.3683 26.1772C96.4178 26.2265 96.4437 26.2924 96.4437 26.37V27.1624C96.4437 27.2329 96.4178 27.294 96.3683 27.3434C96.3189 27.3928 96.2529 27.4187 96.1752 27.4187H94.2016V33.3393C94.2016 33.4098 94.1757 33.4709 94.1263 33.5203C94.0768 33.5697 94.0109 33.5956 93.9331 33.5956H92.9464Z" fill="#005BAA"/>
<path d="M97.7836 33.5956C97.7129 33.5956 97.6517 33.5697 97.6022 33.5203C97.5528 33.4709 97.5269 33.4098 97.5269 33.3393V26.3582C97.5269 26.2877 97.5528 26.2265 97.6022 26.1772C97.6517 26.1278 97.7129 26.1019 97.7836 26.1019H98.7916C98.8693 26.1019 98.9329 26.1278 98.98 26.1772C99.0271 26.2265 99.0506 26.2877 99.0506 26.3582V33.3393C99.0506 33.4098 99.0271 33.4709 98.98 33.5203C98.9329 33.5697 98.8716 33.5956 98.7916 33.5956H97.7836Z" fill="#005BAA"/>
<path d="M100.271 33.5956C100.214 33.5956 100.162 33.5744 100.115 33.5321C100.068 33.4898 100.045 33.4357 100.045 33.3722C100.045 33.344 100.052 33.3111 100.066 33.2758L102.649 26.37C102.671 26.2994 102.713 26.236 102.772 26.1819C102.833 26.1278 102.916 26.1019 103.024 26.1019H104.192C104.3 26.1019 104.38 26.1278 104.439 26.1819C104.496 26.236 104.538 26.2971 104.569 26.37L107.152 33.2758C107.159 33.3111 107.162 33.344 107.162 33.3722C107.162 33.4357 107.141 33.4898 107.098 33.5321C107.056 33.5744 107.004 33.5956 106.947 33.5956H106.015C105.914 33.5956 105.841 33.5721 105.796 33.525C105.749 33.478 105.718 33.4333 105.704 33.391L105.2 32.086H102.016L101.512 33.391C101.498 33.4333 101.467 33.478 101.42 33.525C101.373 33.5721 101.3 33.5956 101.201 33.5956H100.268H100.271ZM102.395 30.8539H104.828L103.606 27.5456L102.395 30.8539Z" fill="#005BAA"/>
</svg>
