<svg width="105" height="93" viewBox="0 0 105 93" fill="none" xmlns="http://www.w3.org/2000/svg">
<path d="M52.5418 0.0204424C61.7638 0.0204424 70.9898 0.0367625 80.2117 4.22854e-05C81.797 -0.00403774 83.0555 0.285644 84.2649 1.51781C90.6471 8.02544 97.0947 14.4678 103.612 20.8367C105.148 22.3382 105.569 23.297 104.057 25.2676C87.2068 47.2834 70.4545 69.3767 53.7554 91.5108C52.215 93.5549 51.5245 93.4488 50.0576 91.466C33.7711 69.4053 17.4274 47.3813 1.00613 25.4186C-0.460717 23.4561 -0.321796 22.4034 1.41063 20.7306C7.97262 14.4025 14.3957 7.9316 20.7779 1.42805C22.0037 0.179563 23.3071 4.22851e-05 24.8679 0.00820233C34.0898 0.0367625 43.3158 0.0245224 52.5378 0.0204424H52.5418ZM51.6389 80.8293C51.8636 80.8171 52.0883 80.8089 52.313 80.7967C58.3479 63.0527 64.3624 45.3005 70.4341 27.5647C71.284 25.0799 69.5229 25.6838 68.3707 25.6797C57.6411 25.6511 46.9115 25.7491 36.1818 25.6063C33.526 25.5695 33.8038 26.5691 34.4044 28.3807C38.0082 39.1846 41.5589 50.0089 45.1136 60.8291C47.3037 67.4917 49.4651 74.1626 51.6389 80.8293ZM59.7617 74.387C59.921 74.4686 60.0845 74.5543 60.2438 74.6359C72.5098 58.4627 84.7757 42.2854 97.3807 25.6634C90.4755 25.6634 84.3916 25.7491 78.3158 25.6144C76.3832 25.5695 75.9991 26.614 75.5211 28.042C72.7018 36.4632 69.8253 44.868 66.9651 53.2729C64.5708 60.3109 62.1642 67.349 59.7658 74.387H59.7617ZM43.7122 74.4441C43.8552 73.8484 43.9859 73.6281 43.9328 73.469C38.899 58.0383 33.8447 42.6159 28.8231 27.1852C28.4962 26.1856 28.0427 25.6511 26.9231 25.6552C20.688 25.6838 14.457 25.6675 7.48231 25.6675C19.785 42.2323 31.6669 58.2301 43.7122 74.4441ZM66.4381 20.6041C66.6097 20.3838 66.7813 20.1676 66.9529 19.9473C62.4216 15.5694 57.8862 11.1997 53.3672 6.8096C52.7216 6.18127 52.2109 6.20983 51.5776 6.82184C47.0626 11.2119 42.5273 15.5816 38.0001 19.9595C38.1717 20.1757 38.3474 20.392 38.519 20.6041H66.4299H66.4381ZM45.8123 4.96135C39.8306 4.96135 34.1797 4.96951 28.533 4.95319C27.4502 4.95319 26.7965 5.03887 27.2868 6.45872C28.7536 10.7101 30.0979 14.9982 31.4912 19.2741C36.284 14.4841 40.8847 9.88593 45.8123 4.96135ZM73.3188 19.0374C74.7488 14.8187 76.1462 10.6407 77.5926 6.4832C77.9154 5.56111 78.0298 4.95319 76.7346 4.95727C70.9448 4.97767 65.151 4.96543 59.2019 4.96543C64.0151 9.76353 68.5505 14.2801 73.3188 19.0333V19.0374ZM95.3378 20.6041C91.0884 16.2385 86.8963 11.93 82.5366 7.45424C81.0575 11.8362 79.5988 16.1488 78.0952 20.6041H95.3378ZM22.5062 7.98056C18.1997 12.2442 13.9054 16.4996 9.61108 20.751C14.5469 20.751 19.691 20.7143 24.8352 20.7714C26.347 20.7877 26.5513 20.1431 26.1468 18.9273C24.8843 15.1369 23.6217 11.3425 22.5022 7.98056H22.5062Z" fill="#005BAA"/>
</svg>
