<svg width="61" height="82" viewBox="0 0 61 82" fill="none" xmlns="http://www.w3.org/2000/svg">
<g clip-path="url(#clip0_50_86)">
<path d="M15.593 0H18.2529V14.0919C18.2529 16.2276 16.4901 17.9791 14.3328 17.9791H0.00348091V15.4626L15.593 0Z" fill="#005BAA"/>
<path d="M3.55353 11.9422V76.1604C3.55353 77.23 4.43668 78.1023 5.51181 78.1023H55.4917C56.5703 78.1023 57.4465 77.23 57.4465 76.1604V5.22343C57.4465 4.15382 56.5668 3.28152 55.4917 3.28152H12.2873L15.593 0H57.0799C59.2372 0 61 1.75153 61 3.89075V77.9846C61 80.1238 59.2372 81.8719 57.0799 81.8719H3.92006C1.76629 81.8719 0 80.1238 0 77.9846V15.4626L3.55353 11.9422Z" fill="#005BAA"/>
<path d="M21.8867 6.80188H53.7324V10.2011H21.8867V6.80188Z" fill="#005BAA"/>
<path d="M21.8867 13.9326H53.7324V17.3318H21.8867V13.9326Z" fill="#005BAA"/>
<path d="M7.35142 21.3783H53.7324V24.7775H7.35142V21.3783Z" fill="#005BAA"/>
<path d="M7.35142 28.6683H53.7324V32.0675H7.35142V28.6683Z" fill="#005BAA"/>
<path d="M7.30952 35.7921H53.6905V39.1913H7.30952V35.7921Z" fill="#005BAA"/>
<path d="M7.30952 42.9229H53.6905V46.3221H7.30952V42.9229Z" fill="#005BAA"/>
<path d="M30.5436 50.3685H53.6905V53.7677H30.5436V50.3685Z" fill="#005BAA"/>
</g>
<defs>
<clipPath id="clip0_50_86">
<rect width="61" height="81.8684" fill="white" transform="matrix(-1 0 0 1 61 0)"/>
</clipPath>
</defs>
</svg>
