<svg width="424" height="295" viewBox="0 0 424 295" fill="none" xmlns="http://www.w3.org/2000/svg">
<path d="M423.441 271.076L397.69 250.536C396.929 249.947 396.324 250.242 396.324 251.203V266.193H35.7449L60.6735 249.126C61.4806 248.583 62.8776 248.397 63.7779 248.738L95.4275 260.163C96.3278 260.504 97.6472 260.194 98.3146 259.512L151.726 205.922C152.425 205.24 153.729 204.883 154.675 205.131L200.993 217.936C201.925 218.199 203.322 217.936 204.082 217.316L259 173.693C259.76 173.089 261.08 172.949 261.949 173.368L291.969 187.738C292.838 188.156 294.297 188.249 295.213 187.924L328.616 176.375C329.532 176.065 331.053 175.91 332.016 176.034L369.346 181.165C370.309 181.305 371.178 180.623 371.302 179.677L372.078 174.205C372.218 173.259 371.551 172.36 370.573 172.22L331.1 166.779C330.138 166.655 328.616 166.795 327.701 167.12L295.756 178.173C294.825 178.499 293.381 178.406 292.512 177.987L260.723 162.78C259.869 162.361 258.534 162.516 257.773 163.121L202.018 207.379C201.257 207.983 199.86 208.262 198.96 208.014L151.975 195.024C151.043 194.76 149.724 195.117 149.041 195.783L95.9397 249.048C95.2568 249.715 93.9529 250.025 93.0371 249.699L62.443 238.631C61.5272 238.305 60.1457 238.491 59.3541 239.018L36.878 254.412C36.0709 254.954 35.5897 254.644 35.807 253.699L45.9119 208.557C46.1447 207.611 47.0761 206.697 48.0229 206.511L82.5752 199.736C83.522 199.55 84.6707 198.729 85.1208 197.861L112.859 146.797C113.293 145.945 114.473 145.278 115.436 145.294L168.35 146.58C169.313 146.611 170.555 145.976 171.098 145.185L220.365 73.3958C220.924 72.6052 222.15 72.0471 223.128 72.1401L282.95 79.085C283.913 79.1935 285.279 78.7439 285.977 78.0774L342.354 24.4717C343.052 23.8051 344.278 23.6811 345.101 24.2082L393.918 56.5142C394.725 57.0413 395.812 56.8242 396.339 56.0181L399.397 51.4141C399.925 50.608 399.708 49.5073 398.916 48.9803L344.076 12.7213C343.285 12.1787 342.043 12.2872 341.345 12.9538L282.811 68.6057C282.112 69.2723 280.762 69.7218 279.815 69.5978L218.751 62.5289C217.788 62.4049 216.562 62.963 216.019 63.7691L166.457 135.993C165.913 136.799 164.656 137.419 163.694 137.403L110.142 136.117C109.196 136.086 108 136.752 107.55 137.605L79.2224 189.784C78.7723 190.621 77.6236 191.474 76.6612 191.66L40.4947 198.744C39.5634 198.93 38.6165 199.845 38.3992 200.791L27.4561 249.699V27.6496H43.863C44.8254 27.6496 45.1048 27.045 44.4839 26.3165L23.0944 0.552271C22.4735 -0.191821 21.4956 -0.176319 20.8747 0.552271L0.30789 26.301C-0.281951 27.045 -0.00255251 27.6496 0.95982 27.6496H16.9631V276.719C16.9631 277.68 17.7548 278.471 18.7016 278.471H396.308V294.035C396.308 294.996 396.898 295.29 397.643 294.686L423.457 273.293C424.186 272.673 424.186 271.681 423.426 271.076H423.441Z" fill="#005BAA" fill-opacity="0.28"/>
</svg>
