<svg width="60" height="61" viewBox="0 0 60 61" fill="none" xmlns="http://www.w3.org/2000/svg">
<g filter="url(#filter0_d_31_241)">
<g clip-path="url(#clip0_31_241)">
<path d="M20.7364 50.5238C20.7253 51.2812 20.0917 51.8976 19.3308 51.8976L17.4964 51.892C16.7356 51.892 16.1269 51.2674 16.1407 50.51L16.2154 46.1788C16.232 45.4214 16.8601 44.805 17.6182 44.805H19.4581C20.2162 44.8133 20.8249 45.4352 20.8111 46.1926L20.7364 50.5238Z" fill="#005BAA"/>
<path d="M28.6106 50.5542C28.6023 51.3088 27.9715 51.9307 27.2134 51.9252L25.3735 51.9197C24.6126 51.9169 24.0012 51.295 24.0122 50.5376L24.1672 39.6418C24.181 38.8845 24.8091 38.2626 25.5699 38.2681H27.4071C28.168 38.2736 28.7794 38.8955 28.7684 39.6556L28.6106 50.5515V50.5542Z" fill="#005BAA"/>
<path d="M37.1434 50.5846C37.1351 51.3392 36.5071 51.9556 35.7517 51.9528H33.9146C33.1565 51.9473 32.5423 51.3226 32.5506 50.568L32.7581 32.0573C32.7691 31.3027 33.3944 30.6836 34.1498 30.6863L35.9897 30.6946C36.7478 30.6946 37.362 31.3193 37.3537 32.0766L37.1434 50.5846Z" fill="#005BAA"/>
<path d="M46.3292 50.6123C46.3264 51.3696 45.7011 51.986 44.943 51.986L43.1059 51.9777C42.345 51.9777 41.728 51.3503 41.7336 50.5929L41.8774 23.2981C41.883 22.5462 42.5055 21.9243 43.2608 21.9299H45.1007C45.8589 21.9382 46.4758 22.5573 46.4731 23.3174L46.3292 50.6123Z" fill="#005BAA"/>
<path d="M55.0806 13.5604C55.0806 12.8058 54.4581 12.1839 53.7 12.1866L53.3071 12.1977L51.7438 12.1866C50.9857 12.1839 50.3632 12.8058 50.3604 13.5604L50.2636 50.6261C50.2636 51.3834 50.8834 52.0026 51.6415 52.0081L53.3403 52.0164H53.4786L53.7996 52.0081C54.5577 52.0026 55.1774 51.3834 55.1774 50.6261L55.0778 13.5604H55.0806Z" fill="#005BAA"/>
<path d="M54.1812 2.47377C54.1065 1.72196 53.7274 0.284657 53.3345 0.0607701C52.95 -0.146533 51.561 0.221084 50.8472 0.475376L46.4812 2.09234C45.7729 2.35216 45.4519 3.12885 45.7701 3.81433C46.0883 4.50258 46.9377 4.85361 47.6515 4.60485L49.3005 4.01887L44.6883 14.3204L41.7887 11.7029C41.465 11.4044 41.014 11.2883 40.5851 11.3684C40.1563 11.4624 39.7911 11.7444 39.6085 12.1424L34.6144 22.9995L32.1021 19.9535C31.8033 19.597 31.3413 19.4118 30.8681 19.4643C30.4006 19.5223 29.9966 19.8181 29.7919 20.241L24.7729 30.7858L22.7061 28.7266C22.3796 28.4004 21.9148 28.2512 21.461 28.3479C21.0128 28.4364 20.6338 28.7459 20.4595 29.1688L16.4365 38.8457L14.2176 36.5516C13.9215 36.2448 13.4954 36.0817 13.0666 36.1425C12.6405 36.195 12.2587 36.43 12.0401 36.8059C12.0429 36.8086 3.91402 50.1009 3.99979 50.3192C4.08279 50.5376 5.95868 51.7483 6.36817 51.7261C6.77765 51.704 13.4899 39.7662 13.4899 39.7662L15.9136 42.2759C16.2318 42.6103 16.7049 42.7568 17.1642 42.6767C17.6207 42.5882 17.9998 42.2759 18.1796 41.8475L22.2136 32.1319L24.2057 34.1248C24.5211 34.4454 24.9721 34.5836 25.4176 34.509C25.8575 34.4343 26.2338 34.1441 26.4274 33.7461L31.3579 23.3865L33.8895 26.4518C34.1938 26.8139 34.6614 26.9991 35.1318 26.941C35.6021 26.8802 36.0089 26.5789 36.2053 26.1533L41.3349 15.0059L44.2484 17.64C44.5776 17.9386 45.0231 18.0629 45.4602 17.9717C45.8919 17.8777 46.2543 17.582 46.4341 17.1867L51.716 5.3843L51.8681 6.95151C51.9401 7.70333 52.6207 8.24232 53.3705 8.1511C54.1231 8.05989 54.6764 7.36888 54.599 6.61154L54.1812 2.47654V2.47377Z" fill="#005BAA"/>
</g>
</g>
<defs>
<filter id="filter0_d_31_241" x="0" y="0" width="59.1774" height="60.0164" filterUnits="userSpaceOnUse" color-interpolation-filters="sRGB">
<feFlood flood-opacity="0" result="BackgroundImageFix"/>
<feColorMatrix in="SourceAlpha" type="matrix" values="0 0 0 0 0 0 0 0 0 0 0 0 0 0 0 0 0 0 127 0" result="hardAlpha"/>
<feOffset dy="4"/>
<feGaussianBlur stdDeviation="2"/>
<feComposite in2="hardAlpha" operator="out"/>
<feColorMatrix type="matrix" values="0 0 0 0 0 0 0 0 0 0 0 0 0 0 0 0 0 0 0.25 0"/>
<feBlend mode="normal" in2="BackgroundImageFix" result="effect1_dropShadow_31_241"/>
<feBlend mode="normal" in="SourceGraphic" in2="effect1_dropShadow_31_241" result="shape"/>
</filter>
<clipPath id="clip0_31_241">
<rect width="51.1774" height="52.0164" fill="white" transform="translate(4)"/>
</clipPath>
</defs>
</svg>
