<svg width="192" height="48" viewBox="0 0 192 48" fill="none" xmlns="http://www.w3.org/2000/svg">
<path d="M37.6572 5.14857L40.2007 2.61911L42.322 0.51123L44.7391 2.93779L46.9635 5.17181L65.6957 23.9668L41.4974 48L36.8559 43.3428L56.3861 23.9436L42.2987 9.80584L36.3439 15.7179V6.44982L37.6572 5.14857Z" fill="white"/>
<path d="M53.5866 5.14857L56.1334 2.61911L58.2547 0.51123L60.6718 2.93779L62.8962 5.17181L81.625 23.9668L57.4301 48L52.7853 43.3428L72.3188 23.9436L58.2314 9.80584L53.5866 5.14857Z" fill="white"/>
<path d="M4.64149 28.6938L0 24.0332L24.1982 0L28.8397 4.65726L9.30958 24.0598L13.9378 28.7071L29.7175 13.0324V22.3004L18.5826 33.3643L23.397 38.1942L42.9271 18.795L47.5686 23.4556L28.0384 42.8548L23.3704 47.4888L18.7289 42.8315L11.8331 35.9071L9.273 33.3411L4.64149 28.6938Z" fill="white"/>
<path d="M88.6804 11.1537C88.5806 11.1537 88.4942 11.1172 88.4244 11.0475C88.3545 10.9778 88.318 10.8915 88.318 10.7919V0.952886C88.318 0.843342 88.3545 0.750396 88.4244 0.680687C88.4942 0.610977 88.5806 0.574463 88.6804 0.574463H95.34C95.4498 0.574463 95.5429 0.610977 95.6127 0.680687C95.6825 0.750396 95.7191 0.843342 95.7191 0.952886V1.94874C95.7191 2.04832 95.6825 2.13463 95.6127 2.20434C95.5429 2.27405 95.4498 2.31056 95.34 2.31056H90.3594V4.98608H95.0076C95.1173 4.98608 95.2104 5.01928 95.2802 5.08567C95.35 5.15206 95.3866 5.23836 95.3866 5.35123V6.28733C95.3866 6.39687 95.35 6.4865 95.2802 6.55289C95.2104 6.61928 95.1173 6.65247 95.0076 6.65247H90.3594V9.41762H95.4597C95.5695 9.41762 95.6625 9.45413 95.7324 9.52384C95.8022 9.59355 95.8388 9.6865 95.8388 9.79604V10.7919C95.8388 10.8915 95.8022 10.9778 95.7324 11.0475C95.6625 11.1172 95.5695 11.1537 95.4597 11.1537H88.677H88.6804Z" fill="white"/>
<path d="M97.0822 11.1537C97.0024 11.1537 96.9293 11.1238 96.8628 11.0641C96.7963 11.0043 96.7631 10.928 96.7631 10.8384C96.7631 10.7985 96.773 10.7521 96.793 10.7023L100.44 0.952886C100.47 0.853301 100.53 0.763674 100.613 0.687326C100.7 0.610977 100.816 0.574463 100.969 0.574463H102.618C102.771 0.574463 102.884 0.610977 102.967 0.687326C103.047 0.763674 103.107 0.849981 103.15 0.952886L106.797 10.7023C106.807 10.7521 106.811 10.7985 106.811 10.8384C106.811 10.928 106.781 11.0043 106.721 11.0641C106.661 11.1238 106.588 11.1537 106.508 11.1537H105.192C105.049 11.1537 104.946 11.1205 104.882 11.0541C104.816 10.9877 104.773 10.9247 104.753 10.8649L104.041 9.0226H99.546L98.8344 10.8649C98.8145 10.9247 98.7713 10.9877 98.7048 11.0541C98.6383 11.1205 98.5352 11.1537 98.3956 11.1537H97.0789H97.0822ZM100.081 7.28318H103.516L101.79 2.61264L100.081 7.28318Z" fill="white"/>
<path d="M111.751 11.3064C110.814 11.3064 110.029 11.167 109.397 10.8914C108.766 10.6159 108.287 10.2508 107.958 9.80264C107.629 9.35451 107.456 8.88314 107.436 8.38853C107.436 8.29891 107.466 8.22256 107.526 8.16281C107.585 8.10306 107.662 8.07318 107.752 8.07318H109.098C109.228 8.07318 109.328 8.09974 109.394 8.15617C109.461 8.2126 109.517 8.27899 109.567 8.35866C109.627 8.55119 109.743 8.7404 109.916 8.92629C110.089 9.11218 110.322 9.26488 110.621 9.3877C110.917 9.50721 111.296 9.57028 111.748 9.57028C112.476 9.57028 113.018 9.45077 113.377 9.20845C113.736 8.96613 113.916 8.64082 113.916 8.22588C113.916 7.93376 113.82 7.69808 113.627 7.52214C113.434 7.34621 113.141 7.18355 112.742 7.0375C112.343 6.89144 111.815 6.73874 111.16 6.57609C110.402 6.39351 109.77 6.17443 109.261 5.91882C108.752 5.66322 108.367 5.33791 108.111 4.94289C107.855 4.55119 107.725 4.04995 107.725 3.4458C107.725 2.84165 107.885 2.34372 108.201 1.88895C108.516 1.43418 108.972 1.07899 109.564 0.81675C110.156 0.554509 110.857 0.425049 111.675 0.425049C112.33 0.425049 112.912 0.514675 113.417 0.690609C113.923 0.866543 114.342 1.09891 114.674 1.38438C115.006 1.66986 115.263 1.97858 115.439 2.30721C115.615 2.63584 115.708 2.95451 115.718 3.26654C115.718 3.34621 115.691 3.41924 115.635 3.48563C115.578 3.55202 115.502 3.58521 115.399 3.58521H113.992C113.913 3.58521 113.83 3.5653 113.75 3.52546C113.67 3.48563 113.603 3.40928 113.554 3.29974C113.494 2.9877 113.298 2.71882 112.962 2.49974C112.629 2.27733 112.2 2.16779 111.675 2.16779C111.15 2.16779 110.691 2.26737 110.358 2.46986C110.026 2.67235 109.86 2.98439 109.86 3.40596C109.86 3.68812 109.943 3.9238 110.109 4.1097C110.275 4.29559 110.541 4.46156 110.91 4.60098C111.279 4.7404 111.765 4.8931 112.37 5.05575C113.228 5.24828 113.929 5.47069 114.475 5.71965C115.02 5.97194 115.419 6.29061 115.671 6.67899C115.924 7.06737 116.051 7.55866 116.051 8.15285C116.051 8.81675 115.871 9.38438 115.512 9.85243C115.153 10.3205 114.651 10.6823 114.006 10.9313C113.361 11.1836 112.606 11.3097 111.748 11.3097L111.751 11.3064Z" fill="white"/>
<path d="M120.366 11.1537C120.266 11.1537 120.18 11.1172 120.11 11.0475C120.04 10.9778 120.004 10.8915 120.004 10.7919V2.43338H117.204C117.104 2.43338 117.018 2.39687 116.948 2.32716C116.878 2.25745 116.842 2.17114 116.842 2.07156V0.952886C116.842 0.843342 116.878 0.750396 116.948 0.680687C117.018 0.610977 117.104 0.574463 117.204 0.574463H124.925C125.034 0.574463 125.127 0.610977 125.197 0.680687C125.267 0.750396 125.304 0.843342 125.304 0.952886V2.07156C125.304 2.17114 125.267 2.25745 125.197 2.32716C125.127 2.39687 125.034 2.43338 124.925 2.43338H122.138V10.7919C122.138 10.8915 122.102 10.9778 122.032 11.0475C121.962 11.1172 121.869 11.1537 121.759 11.1537H120.366Z" fill="white"/>
<path d="M127.192 11.1537C127.092 11.1537 127.006 11.1172 126.936 11.0475C126.866 10.9778 126.83 10.8915 126.83 10.7919V0.952886C126.83 0.843342 126.866 0.750396 126.936 0.680687C127.006 0.610977 127.092 0.574463 127.192 0.574463H133.852C133.961 0.574463 134.055 0.610977 134.124 0.680687C134.194 0.750396 134.231 0.843342 134.231 0.952886V1.94874C134.231 2.04832 134.194 2.13463 134.124 2.20434C134.055 2.27405 133.961 2.31056 133.852 2.31056H128.871V4.98608H133.519C133.629 4.98608 133.722 5.01928 133.792 5.08567C133.862 5.15206 133.898 5.23836 133.898 5.35123V6.28733C133.898 6.39687 133.862 6.4865 133.792 6.55289C133.722 6.61928 133.629 6.65247 133.519 6.65247H128.871V9.41762H133.971C134.081 9.41762 134.174 9.45413 134.244 9.52384C134.314 9.59355 134.35 9.6865 134.35 9.79604V10.7919C134.35 10.8915 134.314 10.9778 134.244 11.0475C134.174 11.1172 134.081 11.1537 133.971 11.1537H127.189H127.192Z" fill="white"/>
<path d="M136.608 11.1537C136.508 11.1537 136.422 11.1172 136.352 11.0475C136.282 10.9778 136.246 10.8915 136.246 10.7919V0.952886C136.246 0.843342 136.282 0.750396 136.352 0.680687C136.422 0.610977 136.508 0.574463 136.608 0.574463H140.528C141.748 0.574463 142.712 0.856621 143.421 1.42094C144.126 1.98525 144.481 2.80517 144.481 3.88401C144.481 4.63089 144.298 5.24832 143.929 5.74293C143.56 6.23753 143.068 6.59604 142.453 6.81513L144.664 10.6691C144.694 10.7288 144.711 10.7853 144.711 10.835C144.711 10.9247 144.677 11.001 144.611 11.0608C144.544 11.1205 144.471 11.1504 144.392 11.1504H143.015C142.842 11.1504 142.712 11.1039 142.623 11.0143C142.533 10.9247 142.46 10.8317 142.41 10.7421L140.458 7.16035H138.354V10.7886C138.354 10.8882 138.32 10.9745 138.254 11.0442C138.187 11.1139 138.101 11.1504 137.988 11.1504H136.611L136.608 11.1537ZM138.35 5.45413H140.485C141.1 5.45413 141.559 5.31471 141.861 5.03919C142.164 4.76367 142.317 4.37197 142.317 3.86741C142.317 3.36284 142.167 2.96782 141.871 2.68235C141.572 2.39355 141.11 2.25081 140.485 2.25081H138.35V5.45413Z" fill="white"/>
<path d="M146.795 11.1537C146.696 11.1537 146.609 11.1172 146.539 11.0475C146.47 10.9778 146.433 10.8915 146.433 10.7919V0.952886C146.433 0.843343 146.47 0.750396 146.539 0.680687C146.609 0.610977 146.696 0.574463 146.795 0.574463H147.962C148.102 0.574463 148.208 0.607658 148.272 0.674048C148.338 0.740438 148.381 0.786911 148.401 0.816787L152.76 7.58857V0.952886C152.76 0.843343 152.793 0.750396 152.86 0.680687C152.926 0.610977 153.013 0.574463 153.126 0.574463H154.396C154.506 0.574463 154.599 0.610977 154.669 0.680687C154.738 0.750396 154.775 0.843343 154.775 0.952886V10.7786C154.775 10.8882 154.738 10.9811 154.669 11.0508C154.599 11.1205 154.512 11.157 154.413 11.157H153.232C153.089 11.157 152.99 11.1205 152.93 11.0508C152.87 10.9811 152.823 10.9346 152.793 10.9147L148.448 4.29562V10.7952C148.448 10.8948 148.411 10.9811 148.341 11.0508C148.272 11.1205 148.179 11.157 148.069 11.157H146.799L146.795 11.1537Z" fill="white"/>
<path d="M92.4042 29.4409C91.4666 29.4409 90.672 29.2782 90.0203 28.9496C89.3686 28.621 88.8732 28.1529 88.5274 27.5455C88.185 26.9347 87.9921 26.2044 87.9522 25.348C87.9423 24.9363 87.9356 24.4915 87.9356 24.0168C87.9356 23.5421 87.9389 23.0907 87.9522 22.6558C87.9921 21.8094 88.1883 21.0791 88.5341 20.465C88.8832 19.8509 89.3819 19.3795 90.0336 19.0509C90.6853 18.7222 91.4732 18.5596 92.4009 18.5596C93.0858 18.5596 93.7042 18.6492 94.2495 18.8318C94.7948 19.0143 95.2569 19.2633 95.6426 19.5787C96.025 19.8973 96.3242 20.2658 96.537 20.6907C96.7498 21.1123 96.8595 21.5737 96.8695 22.065C96.8794 22.1546 96.8528 22.2309 96.7864 22.2907C96.7199 22.3504 96.6434 22.3803 96.5503 22.3803H95.1106C95.0009 22.3803 94.9078 22.3538 94.838 22.2973C94.7682 22.2409 94.7183 22.148 94.685 22.0185C94.5221 21.3546 94.2462 20.8998 93.8538 20.6575C93.4615 20.4152 92.9694 20.2957 92.3842 20.2957C91.7093 20.2957 91.1674 20.4849 90.765 20.8633C90.3627 21.2417 90.1433 21.8625 90.1134 22.7289C90.0835 23.5554 90.0835 24.4019 90.1134 25.2683C90.1433 26.1347 90.3594 26.7587 90.765 27.1338C91.1674 27.5123 91.7093 27.7015 92.3842 27.7015C92.9694 27.7015 93.4582 27.5787 93.8538 27.3297C94.2462 27.0841 94.5255 26.6326 94.685 25.9753C94.715 25.8359 94.7648 25.7397 94.838 25.6899C94.9078 25.6401 95.0009 25.6135 95.1106 25.6135H96.5503C96.6401 25.6135 96.7199 25.6434 96.7864 25.7031C96.8528 25.7629 96.8794 25.8392 96.8695 25.9289C96.8595 26.4235 96.7498 26.8816 96.537 27.3031C96.3242 27.728 96.0283 28.0965 95.6426 28.4152C95.2602 28.7338 94.7948 28.9828 94.2495 29.1621C93.7042 29.3446 93.0891 29.4343 92.4009 29.4343L92.4042 29.4409Z" fill="white"/>
<path d="M102.744 29.4409C101.847 29.4409 101.075 29.2915 100.427 28.9961C99.782 28.7006 99.2766 28.2392 98.9142 27.6218C98.5518 27.0011 98.3557 26.2276 98.3224 25.3015C98.3124 24.8699 98.3091 24.4417 98.3091 24.0168C98.3091 23.5919 98.3124 23.1604 98.3224 22.7156C98.3523 21.7994 98.5552 21.0326 98.9275 20.4185C99.2999 19.8044 99.8119 19.3397 100.464 19.0276C101.115 18.7156 101.873 18.5596 102.741 18.5596C103.609 18.5596 104.37 18.7156 105.029 19.0276C105.684 19.3397 106.199 19.8044 106.571 20.4185C106.944 21.0326 107.147 21.7994 107.176 22.7156C107.196 23.1604 107.206 23.5919 107.206 24.0168C107.206 24.4417 107.196 24.8699 107.176 25.3015C107.147 26.2276 106.95 27.0011 106.585 27.6218C106.222 28.2426 105.714 28.7006 105.062 28.9961C104.41 29.2948 103.636 29.4409 102.738 29.4409H102.744ZM102.744 27.7015C103.399 27.7015 103.935 27.5089 104.35 27.1206C104.763 26.7322 104.985 26.1015 105.015 25.2251C105.035 24.7836 105.045 24.372 105.045 23.9936C105.045 23.6152 105.035 23.2102 105.015 22.7753C104.995 22.1911 104.886 21.7164 104.689 21.348C104.493 20.9795 104.227 20.7139 103.895 20.548C103.562 20.382 103.177 20.299 102.744 20.299C102.312 20.299 101.943 20.382 101.607 20.548C101.272 20.7139 101.009 20.9828 100.813 21.348C100.617 21.7164 100.507 22.1911 100.487 22.7753C100.477 23.2102 100.47 23.6152 100.47 23.9936C100.47 24.372 100.474 24.7836 100.487 25.2251C100.517 26.1015 100.74 26.7355 101.152 27.1206C101.564 27.5089 102.096 27.7015 102.741 27.7015H102.744Z" fill="white"/>
<path d="M109.554 29.2914C109.454 29.2914 109.368 29.2549 109.298 29.1852C109.228 29.1155 109.191 29.0292 109.191 28.9296V19.0906C109.191 18.981 109.228 18.8881 109.298 18.8184C109.368 18.7487 109.454 18.7122 109.554 18.7122H113.474C114.694 18.7122 115.658 18.9943 116.366 19.5586C117.071 20.1229 117.427 20.9429 117.427 22.0217C117.427 22.7686 117.244 23.386 116.875 23.8806C116.506 24.3752 116.014 24.7337 115.399 24.9528L117.61 28.8068C117.64 28.8665 117.656 28.9229 117.656 28.9727C117.656 29.0624 117.623 29.1387 117.557 29.1985C117.49 29.2582 117.417 29.2881 117.337 29.2881H115.961C115.788 29.2881 115.658 29.2416 115.568 29.152C115.479 29.0624 115.405 28.9694 115.356 28.8798L113.404 25.298H111.299V28.9263C111.299 29.0259 111.266 29.1122 111.2 29.1819C111.133 29.2516 111.047 29.2881 110.934 29.2881H109.557L109.554 29.2914ZM111.296 23.5918H113.431C114.046 23.5918 114.504 23.4524 114.807 23.1769C115.11 22.9014 115.263 22.5097 115.263 22.0051C115.263 21.5005 115.113 21.1055 114.817 20.82C114.518 20.5312 114.056 20.3885 113.431 20.3885H111.296V23.5918Z" fill="white"/>
<path d="M119.744 29.2914C119.645 29.2914 119.558 29.2549 119.488 29.1852C119.419 29.1155 119.382 29.0292 119.382 28.9296V19.0906C119.382 18.981 119.419 18.8881 119.488 18.8184C119.558 18.7487 119.645 18.7122 119.744 18.7122H123.801C124.589 18.7122 125.274 18.835 125.859 19.0839C126.444 19.3296 126.9 19.7047 127.222 20.2026C127.545 20.7005 127.707 21.3246 127.707 22.0682C127.707 22.8117 127.545 23.4458 127.222 23.9337C126.9 24.4217 126.444 24.7868 125.859 25.0292C125.274 25.2715 124.589 25.391 123.801 25.391H121.546V28.9263C121.546 29.0259 121.513 29.1122 121.447 29.1819C121.38 29.2516 121.294 29.2881 121.181 29.2881H119.741L119.744 29.2914ZM121.517 23.7146H123.728C124.313 23.7146 124.762 23.5752 125.074 23.2997C125.387 23.0242 125.543 22.6126 125.543 22.0682C125.543 21.5636 125.397 21.1586 125.104 20.8499C124.811 20.5445 124.353 20.3885 123.728 20.3885H121.517V23.7146Z" fill="white"/>
<path d="M133.429 29.4409C132.532 29.4409 131.76 29.2915 131.112 28.9961C130.467 28.7006 129.962 28.2392 129.599 27.6218C129.237 27.0011 129.041 26.2276 129.007 25.3015C128.997 24.8699 128.994 24.4417 128.994 24.0168C128.994 23.5919 128.997 23.1604 129.007 22.7156C129.037 21.7994 129.24 21.0326 129.613 20.4185C129.985 19.8044 130.497 19.3397 131.149 19.0276C131.8 18.7156 132.558 18.5596 133.426 18.5596C134.294 18.5596 135.055 18.7156 135.714 19.0276C136.369 19.3397 136.884 19.8044 137.256 20.4185C137.629 21.0326 137.832 21.7994 137.862 22.7156C137.881 23.1604 137.891 23.5919 137.891 24.0168C137.891 24.4417 137.881 24.8699 137.862 25.3015C137.832 26.2276 137.635 27.0011 137.27 27.6218C136.907 28.2426 136.399 28.7006 135.747 28.9961C135.095 29.2948 134.321 29.4409 133.423 29.4409H133.429ZM133.429 27.7015C134.084 27.7015 134.62 27.5089 135.035 27.1206C135.448 26.7322 135.67 26.1015 135.7 25.2251C135.72 24.7836 135.73 24.372 135.73 23.9936C135.73 23.6152 135.72 23.2102 135.7 22.7753C135.68 22.1911 135.571 21.7164 135.375 21.348C135.178 20.9795 134.912 20.7139 134.58 20.548C134.247 20.382 133.862 20.299 133.429 20.299C132.997 20.299 132.628 20.382 132.292 20.548C131.957 20.7139 131.694 20.9828 131.498 21.348C131.302 21.7164 131.192 22.1911 131.172 22.7753C131.162 23.2102 131.155 23.6152 131.155 23.9936C131.155 24.372 131.159 24.7836 131.172 25.2251C131.202 26.1015 131.425 26.7355 131.837 27.1206C132.249 27.5089 132.781 27.7015 133.426 27.7015H133.429Z" fill="white"/>
<path d="M140.242 29.2914C140.142 29.2914 140.056 29.2549 139.986 29.1852C139.916 29.1155 139.88 29.0292 139.88 28.9296V19.0906C139.88 18.981 139.916 18.8881 139.986 18.8184C140.056 18.7487 140.142 18.7122 140.242 18.7122H144.162C145.382 18.7122 146.347 18.9943 147.055 19.5586C147.76 20.1229 148.115 20.9429 148.115 22.0217C148.115 22.7686 147.932 23.386 147.563 23.8806C147.194 24.3752 146.702 24.7337 146.087 24.9528L148.298 28.8068C148.328 28.8665 148.345 28.9229 148.345 28.9727C148.345 29.0624 148.312 29.1387 148.245 29.1985C148.179 29.2582 148.105 29.2881 148.026 29.2881H146.649C146.476 29.2881 146.347 29.2416 146.257 29.152C146.167 29.0624 146.094 28.9694 146.044 28.8798L144.092 25.298H141.988V28.9263C141.988 29.0259 141.954 29.1122 141.888 29.1819C141.821 29.2516 141.735 29.2881 141.622 29.2881H140.245L140.242 29.2914ZM141.984 23.5918H144.119C144.734 23.5918 145.193 23.4524 145.495 23.1769C145.798 22.9014 145.951 22.5097 145.951 22.0051C145.951 21.5005 145.801 21.1055 145.505 20.82C145.206 20.5312 144.744 20.3885 144.119 20.3885H141.984V23.5918Z" fill="white"/>
<path d="M149.415 29.2914C149.336 29.2914 149.262 29.2615 149.196 29.2018C149.129 29.142 149.096 29.0657 149.096 28.9761C149.096 28.9362 149.106 28.8898 149.126 28.84L152.773 19.0906C152.803 18.991 152.863 18.9014 152.946 18.825C153.033 18.7487 153.149 18.7122 153.302 18.7122H154.951C155.104 18.7122 155.217 18.7487 155.3 18.825C155.38 18.9014 155.44 18.9877 155.483 19.0906L159.131 28.84C159.141 28.8898 159.144 28.9362 159.144 28.9761C159.144 29.0657 159.114 29.142 159.054 29.2018C158.994 29.2615 158.921 29.2914 158.841 29.2914H157.525C157.382 29.2914 157.279 29.2582 157.215 29.1918C157.149 29.1254 157.106 29.0624 157.086 29.0026L156.374 27.1603H151.879L151.168 29.0026C151.148 29.0624 151.104 29.1254 151.038 29.1918C150.971 29.2582 150.868 29.2914 150.729 29.2914H149.412H149.415ZM152.414 25.4209H155.849L154.123 20.7503L152.414 25.4209Z" fill="white"/>
<path d="M162.146 29.2914C162.046 29.2914 161.96 29.2549 161.89 29.1852C161.82 29.1155 161.784 29.0292 161.784 28.9296V20.5711H158.984C158.885 20.5711 158.798 20.5346 158.728 20.4649C158.658 20.3951 158.622 20.3088 158.622 20.2093V19.0906C158.622 18.981 158.658 18.8881 158.728 18.8184C158.798 18.7487 158.885 18.7122 158.984 18.7122H166.705C166.814 18.7122 166.907 18.7487 166.977 18.8184C167.047 18.8881 167.084 18.981 167.084 19.0906V20.2093C167.084 20.3088 167.047 20.3951 166.977 20.4649C166.907 20.5346 166.814 20.5711 166.705 20.5711H163.918V28.9296C163.918 29.0292 163.882 29.1155 163.812 29.1852C163.742 29.2549 163.649 29.2914 163.539 29.2914H162.146Z" fill="white"/>
<path d="M168.972 29.2914C168.872 29.2914 168.786 29.2549 168.716 29.1852C168.646 29.1155 168.61 29.0292 168.61 28.9296V19.074C168.61 18.9744 168.646 18.8881 168.716 18.8184C168.786 18.7487 168.872 18.7122 168.972 18.7122H170.395C170.505 18.7122 170.595 18.7487 170.661 18.8184C170.728 18.8881 170.761 18.9744 170.761 19.074V28.9296C170.761 29.0292 170.728 29.1155 170.661 29.1852C170.595 29.2549 170.508 29.2914 170.395 29.2914H168.972Z" fill="white"/>
<path d="M177.208 29.4409C176.31 29.4409 175.539 29.2915 174.89 28.9961C174.245 28.7006 173.74 28.2392 173.378 27.6218C173.015 27.0011 172.819 26.2276 172.786 25.3015C172.776 24.8699 172.772 24.4417 172.772 24.0168C172.772 23.5919 172.776 23.1604 172.786 22.7156C172.816 21.7994 173.018 21.0326 173.391 20.4185C173.763 19.8044 174.275 19.3397 174.927 19.0276C175.579 18.7156 176.337 18.5596 177.204 18.5596C178.072 18.5596 178.834 18.7156 179.492 19.0276C180.147 19.3397 180.662 19.8044 181.035 20.4185C181.407 21.0326 181.61 21.7994 181.64 22.7156C181.66 23.1604 181.67 23.5919 181.67 24.0168C181.67 24.4417 181.66 24.8699 181.64 25.3015C181.61 26.2276 181.414 27.0011 181.048 27.6218C180.686 28.2426 180.177 28.7006 179.525 28.9961C178.874 29.2948 178.099 29.4409 177.201 29.4409H177.208ZM177.208 27.7015C177.863 27.7015 178.398 27.5089 178.814 27.1206C179.226 26.7322 179.449 26.1015 179.479 25.2251C179.499 24.7836 179.509 24.372 179.509 23.9936C179.509 23.6152 179.499 23.2102 179.479 22.7753C179.459 22.1911 179.349 21.7164 179.153 21.348C178.957 20.9795 178.691 20.7139 178.358 20.548C178.026 20.382 177.64 20.299 177.208 20.299C176.776 20.299 176.406 20.382 176.071 20.548C175.735 20.7139 175.472 20.9828 175.276 21.348C175.08 21.7164 174.97 22.1911 174.95 22.7753C174.94 23.2102 174.934 23.6152 174.934 23.9936C174.934 24.372 174.937 24.7836 174.95 25.2251C174.98 26.1015 175.203 26.7355 175.615 27.1206C176.027 27.5089 176.559 27.7015 177.204 27.7015H177.208Z" fill="white"/>
<path d="M184.02 29.2914C183.921 29.2914 183.834 29.2549 183.764 29.1852C183.695 29.1155 183.658 29.0292 183.658 28.9296V19.0906C183.658 18.981 183.695 18.8881 183.764 18.8184C183.834 18.7487 183.921 18.7122 184.02 18.7122H185.187C185.327 18.7122 185.433 18.7454 185.497 18.8117C185.563 18.8781 185.606 18.9246 185.626 18.9545L189.985 25.7263V19.0906C189.985 18.981 190.018 18.8881 190.085 18.8184C190.151 18.7487 190.238 18.7122 190.351 18.7122H191.621C191.731 18.7122 191.824 18.7487 191.894 18.8184C191.963 18.8881 192 18.981 192 19.0906V28.9163C192 29.0259 191.963 29.1188 191.894 29.1885C191.824 29.2582 191.737 29.2947 191.638 29.2947H190.457C190.314 29.2947 190.215 29.2582 190.155 29.1885C190.095 29.1188 190.048 29.0723 190.018 29.0524L185.673 22.4333V28.9329C185.673 29.0325 185.636 29.1188 185.566 29.1885C185.497 29.2582 185.404 29.2947 185.294 29.2947H184.024L184.02 29.2914Z" fill="white"/>
<path d="M92.4042 47.5786C91.4666 47.5786 90.672 47.4159 90.0203 47.0873C89.3686 46.7587 88.8732 46.2906 88.5274 45.6832C88.185 45.0724 87.9921 44.3421 87.9522 43.4856C87.9423 43.074 87.9356 42.6292 87.9356 42.1545C87.9356 41.6798 87.9389 41.2284 87.9522 40.7935C87.9921 39.9471 88.1883 39.2168 88.5341 38.6027C88.8832 37.9886 89.3819 37.5172 90.0336 37.1886C90.6853 36.8599 91.4732 36.6973 92.4009 36.6973C93.0858 36.6973 93.7042 36.7869 94.2495 36.9695C94.7948 37.152 95.2569 37.401 95.6426 37.7164C96.025 38.035 96.3242 38.4035 96.537 38.8284C96.7498 39.25 96.8595 39.7114 96.8695 40.2027C96.8794 40.2923 96.8528 40.3686 96.7864 40.4284C96.7199 40.4881 96.6434 40.518 96.5503 40.518H95.1106C95.0009 40.518 94.9078 40.4915 94.838 40.435C94.7682 40.3786 94.7183 40.2856 94.685 40.1562C94.5221 39.4923 94.2462 39.0375 93.8538 38.7952C93.4615 38.5529 92.9694 38.4334 92.3842 38.4334C91.7093 38.4334 91.1674 38.6226 90.765 39.001C90.3627 39.3794 90.1433 40.0002 90.1134 40.8666C90.0835 41.6931 90.0835 42.5396 90.1134 43.406C90.1433 44.2724 90.3594 44.8964 90.765 45.2715C91.1674 45.65 91.7093 45.8392 92.3842 45.8392C92.9694 45.8392 93.4582 45.7164 93.8538 45.4674C94.2462 45.2217 94.5255 44.7703 94.685 44.113C94.715 43.9736 94.7648 43.8773 94.838 43.8276C94.9078 43.7778 95.0009 43.7512 95.1106 43.7512H96.5503C96.6401 43.7512 96.7199 43.7811 96.7864 43.8408C96.8528 43.9006 96.8794 43.9769 96.8695 44.0666C96.8595 44.5612 96.7498 45.0193 96.537 45.4408C96.3242 45.8657 96.0283 46.2342 95.6426 46.5529C95.2602 46.8715 94.7948 47.1205 94.2495 47.2998C93.7042 47.4823 93.0891 47.572 92.4009 47.572L92.4042 47.5786Z" fill="white"/>
<path d="M99.0339 47.4294C98.9342 47.4294 98.8478 47.3928 98.7779 47.3231C98.7081 47.2534 98.6715 47.1671 98.6715 47.0675V37.2285C98.6715 37.119 98.7081 37.026 98.7779 36.9563C98.8478 36.8866 98.9342 36.8501 99.0339 36.8501H102.954C104.174 36.8501 105.138 37.1323 105.847 37.6966C106.551 38.2609 106.907 39.0808 106.907 40.1596C106.907 40.9065 106.724 41.524 106.355 42.0186C105.986 42.5132 105.494 42.8717 104.879 43.0908L107.09 46.9447C107.12 47.0045 107.137 47.0609 107.137 47.1107C107.137 47.2003 107.103 47.2767 107.037 47.3364C106.97 47.3962 106.897 47.426 106.817 47.426H105.441C105.268 47.426 105.138 47.3796 105.049 47.2899C104.959 47.2003 104.886 47.1074 104.836 47.0177L102.884 43.436H100.779V47.0642C100.779 47.1638 100.746 47.2501 100.68 47.3198C100.613 47.3895 100.527 47.426 100.414 47.426H99.0373L99.0339 47.4294ZM100.776 41.7298H102.911C103.526 41.7298 103.985 41.5903 104.287 41.3148C104.59 41.0393 104.743 40.6476 104.743 40.143C104.743 39.6385 104.593 39.2435 104.297 38.958C103.998 38.6692 103.536 38.5264 102.911 38.5264H100.776V41.7298Z" fill="white"/>
<path d="M112.902 47.5786C112.004 47.5786 111.233 47.4292 110.584 47.1338C109.939 46.8383 109.434 46.3769 109.072 45.7595C108.709 45.1388 108.513 44.3653 108.48 43.4392C108.47 43.0076 108.467 42.5794 108.467 42.1545C108.467 41.7296 108.47 41.2981 108.48 40.8533C108.51 39.9371 108.713 39.1703 109.085 38.5562C109.457 37.9421 109.969 37.4773 110.621 37.1653C111.273 36.8533 112.031 36.6973 112.899 36.6973C113.766 36.6973 114.528 36.8533 115.186 37.1653C115.841 37.4773 116.356 37.9421 116.729 38.5562C117.101 39.1703 117.304 39.9371 117.334 40.8533C117.354 41.2981 117.364 41.7296 117.364 42.1545C117.364 42.5794 117.354 43.0076 117.334 43.4392C117.304 44.3653 117.108 45.1388 116.742 45.7595C116.38 46.3803 115.871 46.8383 115.219 47.1338C114.568 47.4325 113.793 47.5786 112.895 47.5786H112.902ZM112.902 45.8392C113.557 45.8392 114.092 45.6466 114.508 45.2583C114.92 44.8699 115.143 44.2392 115.173 43.3628C115.193 42.9213 115.203 42.5097 115.203 42.1313C115.203 41.7529 115.193 41.3479 115.173 40.913C115.153 40.3288 115.043 39.8541 114.847 39.4856C114.651 39.1172 114.385 38.8516 114.052 38.6856C113.72 38.5197 113.334 38.4367 112.902 38.4367C112.47 38.4367 112.101 38.5197 111.765 38.6856C111.429 38.8516 111.166 39.1205 110.97 39.4856C110.774 39.8541 110.664 40.3288 110.644 40.913C110.634 41.3479 110.628 41.7529 110.628 42.1313C110.628 42.5097 110.631 42.9213 110.644 43.3628C110.674 44.2392 110.897 44.8732 111.309 45.2583C111.722 45.6466 112.254 45.8392 112.899 45.8392H112.902Z" fill="white"/>
<path d="M118.488 47.4294C118.408 47.4294 118.335 47.3995 118.268 47.3397C118.202 47.28 118.168 47.2036 118.168 47.114C118.168 47.0742 118.178 47.0277 118.198 46.9779L121.846 37.2285C121.876 37.1289 121.935 37.0393 122.019 36.963C122.105 36.8866 122.221 36.8501 122.374 36.8501H124.023C124.176 36.8501 124.289 36.8866 124.373 36.963C124.452 37.0393 124.512 37.1256 124.555 37.2285L128.203 46.9779C128.213 47.0277 128.216 47.0742 128.216 47.114C128.216 47.2036 128.186 47.28 128.126 47.3397C128.066 47.3995 127.993 47.4294 127.914 47.4294H126.597C126.454 47.4294 126.351 47.3962 126.288 47.3298C126.221 47.2634 126.178 47.2003 126.158 47.1406L125.447 45.2982H120.951L120.24 47.1406C120.22 47.2003 120.177 47.2634 120.11 47.3298C120.044 47.3962 119.941 47.4294 119.801 47.4294H118.484H118.488ZM121.487 43.5588H124.921L123.196 38.8883L121.487 43.5588Z" fill="white"/>
<path d="M131.218 47.4294C131.119 47.4294 131.032 47.3928 130.962 47.3231C130.893 47.2534 130.856 47.1671 130.856 47.0675V38.709H128.057C127.957 38.709 127.87 38.6725 127.801 38.6028C127.731 38.5331 127.694 38.4468 127.694 38.3472V37.2285C127.694 37.119 127.731 37.026 127.801 36.9563C127.87 36.8866 127.957 36.8501 128.057 36.8501H135.777C135.887 36.8501 135.98 36.8866 136.049 36.9563C136.119 37.026 136.156 37.119 136.156 37.2285V38.3472C136.156 38.4468 136.119 38.5331 136.049 38.6028C135.98 38.6725 135.887 38.709 135.777 38.709H132.991V47.0675C132.991 47.1671 132.954 47.2534 132.884 47.3231C132.814 47.3928 132.721 47.4294 132.612 47.4294H131.218Z" fill="white"/>
<path d="M138.048 47.4294C137.948 47.4294 137.862 47.3928 137.792 47.3231C137.722 47.2534 137.685 47.1671 137.685 47.0675V37.2119C137.685 37.1123 137.722 37.026 137.792 36.9563C137.862 36.8866 137.948 36.8501 138.048 36.8501H139.471C139.58 36.8501 139.67 36.8866 139.737 36.9563C139.803 37.026 139.836 37.1123 139.836 37.2119V47.0675C139.836 47.1671 139.803 47.2534 139.737 47.3231C139.67 47.3928 139.584 47.4294 139.471 47.4294H138.048Z" fill="white"/>
<path d="M141.559 47.4294C141.479 47.4294 141.406 47.3995 141.339 47.3397C141.273 47.28 141.24 47.2036 141.24 47.114C141.24 47.0742 141.25 47.0277 141.269 46.9779L144.917 37.2285C144.947 37.1289 145.007 37.0393 145.09 36.963C145.176 36.8866 145.293 36.8501 145.445 36.8501H147.095C147.248 36.8501 147.361 36.8866 147.444 36.963C147.523 37.0393 147.583 37.1256 147.627 37.2285L151.274 46.9779C151.284 47.0277 151.287 47.0742 151.287 47.114C151.287 47.2036 151.257 47.28 151.197 47.3397C151.138 47.3995 151.064 47.4294 150.985 47.4294H149.668C149.525 47.4294 149.422 47.3962 149.359 47.3298C149.292 47.2634 149.249 47.2003 149.229 47.1406L148.518 45.2982H144.022L143.311 47.1406C143.291 47.2003 143.248 47.2634 143.181 47.3298C143.115 47.3962 143.012 47.4294 142.872 47.4294H141.555H141.559ZM144.558 43.5588H147.992L146.267 38.8883L144.558 43.5588Z" fill="white"/>
</svg>
