<svg width="298" height="294" viewBox="0 0 298 294" fill="none" xmlns="http://www.w3.org/2000/svg">
<g filter="url(#filter0_d_35_285)">
<g clip-path="url(#clip0_35_285)">
<path d="M109.746 0C51.3381 0 4 47.3381 4 105.746C4 164.154 51.3381 211.479 109.746 211.479C168.154 211.479 215.479 164.14 215.479 105.746C215.479 47.3512 168.14 0 109.746 0ZM109.746 193.003C61.5542 193.003 22.4888 153.938 22.4888 105.746C22.4888 57.5542 61.5542 18.4625 109.746 18.4625C157.938 18.4625 197.003 57.528 197.003 105.733C197.003 153.938 157.938 192.99 109.746 192.99V193.003Z" fill="url(#paint0_linear_35_285)" fill-opacity="0.28"/>
<path d="M281.358 279.84L287.543 273.655C293.347 267.851 295.106 260.117 291.456 256.466L274.687 239.711L214.415 179.425L187.141 206.699L264.182 283.74C267.82 287.39 275.58 285.644 281.358 279.84Z" fill="url(#paint1_linear_35_285)" fill-opacity="0.28"/>
</g>
</g>
<defs>
<filter id="filter0_d_35_285" x="0" y="0" width="297.36" height="293.644" filterUnits="userSpaceOnUse" color-interpolation-filters="sRGB">
<feFlood flood-opacity="0" result="BackgroundImageFix"/>
<feColorMatrix in="SourceAlpha" type="matrix" values="0 0 0 0 0 0 0 0 0 0 0 0 0 0 0 0 0 0 127 0" result="hardAlpha"/>
<feOffset dy="4"/>
<feGaussianBlur stdDeviation="2"/>
<feComposite in2="hardAlpha" operator="out"/>
<feColorMatrix type="matrix" values="0 0 0 0 0 0 0 0 0 0 0 0 0 0 0 0 0 0 0.25 0"/>
<feBlend mode="normal" in2="BackgroundImageFix" result="effect1_dropShadow_35_285"/>
<feBlend mode="normal" in="SourceGraphic" in2="effect1_dropShadow_35_285" result="shape"/>
</filter>
<linearGradient id="paint0_linear_35_285" x1="109.739" y1="0" x2="109.739" y2="211.479" gradientUnits="userSpaceOnUse">
<stop stop-color="#005BAA"/>
<stop offset="1" stop-color="#002444"/>
</linearGradient>
<linearGradient id="paint1_linear_35_285" x1="240.25" y1="179.425" x2="240.25" y2="285.647" gradientUnits="userSpaceOnUse">
<stop stop-color="#005BAA"/>
<stop offset="1" stop-color="#002444"/>
</linearGradient>
<clipPath id="clip0_35_285">
<rect width="289.36" height="285.644" fill="white" transform="translate(4)"/>
</clipPath>
</defs>
</svg>
