<svg width="45" height="50" viewBox="0 0 45 50" fill="none" xmlns="http://www.w3.org/2000/svg">
<g clip-path="url(#clip0_31_246)">
<path d="M23.8477 37.5874L23.8261 37.4821L23.3305 34.6738C23.3162 34.5709 23.2563 34.4775 23.1677 34.4176C23.0744 34.353 22.9666 34.3315 22.8661 34.3482L21.7983 34.535C21.7504 34.5397 21.7026 34.5445 21.6499 34.5541C20.2972 34.7289 20.0099 33.7784 19.998 33.7832C19.9118 33.6204 19.8208 33.4552 19.7226 33.2972C19.7274 33.2948 19.7131 33.2733 19.6891 33.2397C19.6724 33.2062 19.6556 33.1799 19.6388 33.1512C19.5838 33.053 19.5167 32.907 19.4904 32.7226C19.4856 32.6819 19.4808 32.6412 19.476 32.5981C19.4689 32.5335 19.4689 32.4617 19.476 32.3827C19.4808 32.3683 19.4808 32.3539 19.4832 32.3396C19.4904 32.2797 19.5024 32.2223 19.5191 32.1576L20.867 30.5488C20.8814 30.5368 20.8934 30.52 20.9029 30.5009C20.946 30.4315 20.9676 30.3477 20.958 30.2519C20.9532 30.2088 20.9436 30.1681 20.9293 30.1346C20.9053 30.0747 20.8646 30.0197 20.8167 29.979L18.5495 28.0781C18.4729 28.0134 18.3676 27.9751 18.2574 27.9847C18.1473 27.9943 18.0492 28.0493 17.9845 28.1283L17.2854 28.9615C17.2543 28.9902 17.2208 29.0213 17.1801 29.0692C16.2608 30.0723 15.4324 29.5265 15.4276 29.5361C15.1762 29.4259 14.9177 29.3302 14.6519 29.2512C14.4556 29.1578 14.1875 28.9711 14.0103 28.6048V26.5051C14.0103 26.4022 13.972 26.2992 13.893 26.2202C13.8164 26.1412 13.7134 26.1029 13.6081 26.1029H10.649C10.546 26.1029 10.4431 26.1412 10.3641 26.2202C10.2899 26.2992 10.2468 26.4022 10.2468 26.5051V27.5897C10.2468 27.6328 10.2396 27.683 10.2372 27.7381C10.1773 29.0979 9.19336 29.2153 9.19336 29.2224C8.91804 29.3038 8.64751 29.402 8.38416 29.5121C8.17348 29.5624 7.86224 29.5792 7.5127 29.4235L6.16722 27.8171C6.09779 27.7333 6.00202 27.6806 5.89189 27.6711C5.77937 27.6567 5.67642 27.6998 5.59742 27.7596L3.33499 29.663C3.28711 29.706 3.24641 29.7587 3.22007 29.8162C3.20331 29.8545 3.19374 29.8952 3.18895 29.9383C3.17937 30.0269 3.20332 30.1107 3.24401 30.1873C3.25838 30.2016 3.26796 30.2208 3.28232 30.2351L3.979 31.0659C4.00773 31.1042 4.03407 31.1401 4.06519 31.188C4.32376 31.5208 4.43388 31.8248 4.46501 32.081C4.46501 32.0954 4.4698 32.1097 4.4698 32.1193C4.47937 32.1935 4.47937 32.2653 4.4698 32.3348C4.4698 32.3755 4.46261 32.4138 4.45783 32.4497C4.40276 32.7897 4.21602 32.9908 4.21602 32.9955C4.0604 33.2374 3.91676 33.4839 3.78269 33.7377C3.65341 33.9077 3.43075 34.1256 3.05727 34.2285L0.991162 33.8646C0.89061 33.8478 0.780481 33.8694 0.689505 33.934C0.598529 33.9939 0.541071 34.0897 0.524312 34.1902L0.0239444 37.0033L0.00479152 37.111C-0.0095731 37.19 3.31725e-06 37.2786 0.038309 37.3552C0.0478854 37.3768 0.0598559 37.3959 0.0742205 37.4127C0.134073 37.5036 0.234626 37.5659 0.332784 37.5779L1.39816 37.7694C1.44365 37.779 1.49153 37.7933 1.5442 37.8077C2.87772 38.0974 2.81308 39.0933 2.81308 39.0933C2.81308 39.0933 2.82026 39.0933 2.82983 39.0885C2.86335 39.3495 2.90405 39.6128 2.9639 39.8642C2.9639 39.8738 2.9639 39.8834 2.96869 39.8977C2.96869 39.8977 2.96869 39.9025 2.96869 39.9049C2.97348 39.96 2.97348 40.0222 2.96869 40.0869V40.106C2.96869 40.1515 2.96151 40.197 2.95193 40.2473C2.9232 40.4077 2.86096 40.5944 2.72928 40.7812L0.914551 41.8346C0.83794 41.8777 0.778087 41.9447 0.746964 42.0285C0.732599 42.0429 0.727811 42.062 0.727811 42.0764C0.694294 42.1865 0.713446 42.2966 0.766117 42.3852L0.770905 42.3996L2.24328 44.9493C2.29595 45.0355 2.37974 45.1049 2.48987 45.1337C2.6 45.1672 2.70774 45.148 2.79632 45.093L3.7372 44.5519C3.78029 44.5327 3.82099 44.5088 3.87366 44.4825C5.08029 43.8552 5.67882 44.6477 5.6884 44.6405C5.82486 44.765 5.96851 44.8871 6.11215 45.0092C6.11215 45.0092 6.1337 45.0259 6.16003 45.0523C6.19355 45.0738 6.21989 45.1001 6.2534 45.1241C6.38987 45.239 6.57182 45.4545 6.65561 45.7849C6.6604 45.7992 6.66519 45.816 6.66758 45.8279C6.67716 45.883 6.68913 45.9405 6.69392 46.0003L6.67477 46.053L6.63646 46.1488L5.98526 47.9491L5.97808 47.9731C5.93978 48.0712 5.94217 48.179 5.98766 48.2819C5.99245 48.2915 5.99723 48.3034 6.00921 48.3106C6.05469 48.3992 6.1337 48.4591 6.21989 48.4902L8.99944 49.5005C9.09521 49.5388 9.20533 49.5388 9.30828 49.4885C9.41123 49.4383 9.47826 49.3569 9.51657 49.2611L9.88765 48.2436C9.90681 48.2005 9.92596 48.155 9.94751 48.1023C10.467 46.8454 11.4342 47.0657 11.4342 47.0489C11.5827 47.0537 11.7287 47.0585 11.8772 47.0585C11.9179 47.0585 11.9586 47.0537 11.9993 47.0537C11.9993 47.0633 12.5858 46.9556 13.0862 47.4511L13.802 49.4239C13.8379 49.5197 13.9097 49.6011 14.0127 49.6489C14.1156 49.6968 14.2234 49.6944 14.3191 49.6681L17.0987 48.6482C17.1873 48.6219 17.2615 48.5548 17.3118 48.471C17.319 48.4567 17.3237 48.4543 17.3285 48.4423C17.3764 48.3441 17.3764 48.2316 17.3429 48.1335L17.3333 48.1095L16.9742 47.1184C16.9598 47.0705 16.9455 47.0274 16.9311 46.9723C16.8832 46.8167 16.8521 46.6755 16.8353 46.5438C16.8306 46.5007 16.8282 46.4648 16.8282 46.4265C16.8282 46.4193 16.8282 46.4073 16.8282 46.4025C16.821 46.3283 16.821 46.2613 16.8282 46.2014V46.1607C16.8952 45.4832 17.3908 45.2198 17.3908 45.2031C17.5392 45.0953 17.6876 44.9732 17.8289 44.8512C17.8337 44.8559 18.2167 44.3987 18.9134 44.4585L20.7282 45.5071C20.8191 45.5598 20.9293 45.5742 21.037 45.5454C21.1447 45.5215 21.2285 45.4497 21.2812 45.3635L22.7536 42.809L22.7608 42.8018C22.811 42.7084 22.8302 42.6007 22.8015 42.493C22.7943 42.4738 22.7895 42.4547 22.7799 42.4379C22.7488 42.3541 22.6865 42.2942 22.6123 42.2464L21.6738 41.7053C21.6331 41.679 21.5972 41.655 21.5493 41.6215C20.9891 41.2648 20.7904 40.8674 20.7377 40.5489C20.7306 40.5082 20.7234 40.4747 20.7234 40.434C20.7162 40.3478 20.7234 40.2736 20.7234 40.2066C20.7234 40.1922 20.7234 40.1803 20.7306 40.1659C20.7497 40.0438 20.7736 39.972 20.7689 39.972C20.8096 39.7852 20.8455 39.6033 20.8766 39.4189C20.8862 39.4189 20.8814 38.8252 21.4512 38.4206L23.5197 38.0567C23.6202 38.0375 23.716 37.9825 23.7782 37.8939C23.7926 37.8699 23.8022 37.8508 23.8166 37.834C23.8525 37.755 23.8596 37.6712 23.8477 37.5898V37.5874ZM18.6549 37.9442V38.0806C18.6549 38.1046 18.6549 38.1333 18.6501 38.1548C18.5399 41.8011 15.5497 44.7195 11.8772 44.7195C8.2046 44.7195 5.21436 41.7987 5.10423 38.1548C5.10423 38.1189 5.10423 38.0878 5.10423 38.0519C5.10423 38.0375 5.10423 38.0303 5.10423 38.0184C5.10423 37.9896 5.10423 37.9681 5.10423 37.9442C5.10423 37.9059 5.10423 37.8699 5.10902 37.8364C5.10902 37.8221 5.10902 37.8101 5.10902 37.7981C5.18324 34.1208 8.18784 31.1664 11.8819 31.1664C15.576 31.1664 18.5806 34.1208 18.6549 37.7981C18.6549 37.8101 18.6597 37.8221 18.6549 37.8364C18.6597 37.8699 18.6597 37.9059 18.6597 37.9442H18.6549Z" fill="#005BAA"/>
<path d="M42.5959 40.5513L42.5791 40.4675L42.1937 38.2865C42.1817 38.2075 42.1362 38.1333 42.0644 38.0854C41.9926 38.0351 41.9112 38.0184 41.8298 38.0351L40.999 38.1836C40.9607 38.1836 40.9272 38.1884 40.8817 38.1931C39.8331 38.3344 39.6105 37.5922 39.5961 37.5994C39.5315 37.4677 39.4596 37.3432 39.3854 37.2164C39.3902 37.2164 39.3758 37.1996 39.3591 37.1733C39.3447 37.1493 39.3303 37.1254 39.3184 37.1038C39.2705 37.0272 39.225 36.9171 39.2011 36.771C39.1963 36.7375 39.1939 36.7112 39.1915 36.6777C39.1867 36.6226 39.1867 36.5699 39.1915 36.5101C39.1915 36.4957 39.1915 36.4861 39.1963 36.4766C39.2011 36.4263 39.2106 36.3832 39.225 36.3353L40.2712 35.0832C40.2712 35.0832 40.2904 35.0593 40.3 35.0425C40.3335 34.9898 40.3478 34.9204 40.3454 34.851C40.3407 34.8175 40.3335 34.7863 40.3191 34.7576C40.3 34.7121 40.2736 34.669 40.2329 34.6403L38.4733 33.1607C38.4134 33.1105 38.3296 33.0793 38.2434 33.0889C38.1596 33.0985 38.083 33.1416 38.028 33.2014L37.4845 33.8455C37.4606 33.8694 37.4342 33.8981 37.4055 33.9292C36.6897 34.7097 36.0456 34.286 36.0408 34.2932C35.8445 34.2094 35.6434 34.1351 35.4375 34.0705C35.2867 33.9987 35.076 33.8526 34.942 33.5677V31.935C34.942 31.856 34.9108 31.7769 34.851 31.7123C34.7887 31.6525 34.7097 31.6213 34.6283 31.6213H32.3276C32.2486 31.6213 32.1672 31.6525 32.1025 31.7123C32.0451 31.7746 32.014 31.8536 32.014 31.935V32.7777C32.0092 32.816 32.0068 32.8519 32.0044 32.8974C31.9589 33.9532 31.1904 34.0466 31.1904 34.049C30.9773 34.1136 30.7666 34.1902 30.5631 34.274C30.4003 34.3147 30.1585 34.3291 29.8856 34.2046L28.8394 32.9572C28.7891 32.8974 28.7125 32.8543 28.6263 32.8471C28.5401 32.8399 28.4587 32.8687 28.3965 32.9189L26.6344 34.3961C26.5985 34.4296 26.5674 34.4703 26.5458 34.5182C26.5339 34.5421 26.5267 34.5757 26.5219 34.6116C26.5147 34.6786 26.5339 34.748 26.5674 34.8031C26.577 34.8127 26.5889 34.827 26.5961 34.839L27.142 35.4878C27.1611 35.5213 27.1827 35.5453 27.2066 35.5812C27.4053 35.8421 27.4939 36.0744 27.5178 36.2779C27.5178 36.285 27.5178 36.2994 27.5178 36.3066C27.5298 36.3664 27.5298 36.4239 27.5178 36.4742C27.5178 36.5029 27.513 36.534 27.5083 36.5628C27.4652 36.8285 27.3215 36.9817 27.3215 36.9865C27.1994 37.1733 27.0893 37.3648 26.9863 37.5635C26.8858 37.7 26.711 37.8675 26.4237 37.9466L24.8149 37.6617C24.7383 37.6497 24.6569 37.6664 24.5803 37.7143C24.5108 37.7622 24.463 37.8412 24.4486 37.9202L24.0655 40.0989L24.0512 40.1826C24.0392 40.2449 24.0464 40.3143 24.0751 40.3694C24.0847 40.3885 24.0943 40.4029 24.1038 40.4173C24.1517 40.4867 24.2307 40.5346 24.3073 40.5489L25.1381 40.695C25.1716 40.7046 25.2075 40.7165 25.2506 40.7237C26.2849 40.9535 26.237 41.7268 26.237 41.7268C26.237 41.7268 26.2418 41.7268 26.2514 41.7268C26.2753 41.9327 26.3064 42.1338 26.3543 42.3302V42.3541L26.3591 42.3589C26.3639 42.3996 26.3639 42.4499 26.3591 42.5001V42.5169C26.3543 42.5504 26.3543 42.5863 26.3447 42.6246C26.3232 42.7515 26.2753 42.8952 26.1723 43.0412L24.7598 43.86C24.7048 43.8935 24.6569 43.9438 24.6282 44.0084C24.6186 44.0228 24.6186 44.0348 24.6138 44.0467C24.5922 44.1305 24.6042 44.2143 24.6449 44.2861L24.6497 44.2957L25.7941 46.278C25.8348 46.3475 25.8994 46.4025 25.9832 46.4217C26.067 46.448 26.1508 46.436 26.2226 46.393L26.9528 45.9716C26.9863 45.9548 27.0199 45.9381 27.0606 45.9189C27.999 45.4305 28.4635 46.0482 28.4707 46.041C28.576 46.1368 28.6886 46.2349 28.8011 46.3283C28.8011 46.3331 28.8154 46.3427 28.8394 46.3618C28.8633 46.3786 28.8897 46.4001 28.9136 46.4169C29.0165 46.5055 29.1554 46.6731 29.2224 46.9316C29.2272 46.9412 29.232 46.9556 29.2344 46.9651C29.2416 47.0082 29.2512 47.0537 29.2536 47.1016L29.2392 47.1447L29.2081 47.2189L28.7029 48.6171L28.6933 48.6362C28.667 48.7104 28.6694 48.7966 28.7029 48.8756C28.7077 48.8852 28.7125 48.89 28.7221 48.8996C28.758 48.9642 28.8154 49.0121 28.8801 49.0408L31.0444 49.8261C31.1186 49.8524 31.2024 49.8524 31.2838 49.8165C31.3628 49.7782 31.4202 49.7136 31.4466 49.6394L31.7339 48.8469C31.7506 48.8134 31.765 48.7799 31.7817 48.7392C32.1863 47.76 32.9357 47.9324 32.9357 47.918C33.053 47.9252 33.1655 47.9324 33.2804 47.9324C33.3116 47.9324 33.3427 47.9276 33.3762 47.9276C33.3762 47.9324 33.8287 47.851 34.2189 48.234L34.7768 49.7686C34.8055 49.8429 34.8582 49.9099 34.9372 49.9434C35.0162 49.9793 35.1048 49.9793 35.179 49.9554L37.3408 49.1701C37.4055 49.1438 37.4677 49.0935 37.5036 49.0289C37.5084 49.0217 37.5108 49.0145 37.518 49.0049C37.5563 48.9307 37.5563 48.8469 37.5276 48.7655L37.5228 48.7464L37.2379 47.9731C37.2307 47.9395 37.2164 47.906 37.2044 47.8629C37.1661 47.7408 37.1445 47.6307 37.1326 47.5278C37.1326 47.4966 37.1254 47.4703 37.1254 47.4392V47.4176C37.1206 47.3626 37.1206 47.3123 37.1254 47.262V47.25C37.1254 47.25 37.1254 47.2333 37.1254 47.2285C37.1757 46.6994 37.5611 46.4959 37.5611 46.4863C37.676 46.3977 37.7909 46.3044 37.9035 46.2086C37.9083 46.2134 38.2051 45.8591 38.7438 45.9046L40.1587 46.7186C40.2257 46.7569 40.3119 46.7712 40.3981 46.7497C40.4771 46.7281 40.5466 46.6731 40.5849 46.6012L41.7292 44.6213L41.734 44.6141C41.7771 44.5399 41.7867 44.4585 41.7675 44.3747C41.7604 44.358 41.758 44.3436 41.7508 44.3316C41.7245 44.267 41.679 44.2143 41.6167 44.1832L40.8889 43.7594C40.8578 43.7379 40.8291 43.7163 40.7931 43.6972C40.3526 43.4171 40.2042 43.1082 40.1611 42.8593C40.1539 42.8257 40.1515 42.7994 40.1515 42.7755V42.7707C40.1443 42.706 40.1467 42.6438 40.1515 42.5983C40.1515 42.5839 40.1515 42.5744 40.1515 42.5648C40.1659 42.4714 40.1874 42.4092 40.1826 42.4092C40.2162 42.2679 40.2425 42.1291 40.264 41.9806C40.2712 41.9806 40.2688 41.521 40.7117 41.2073L42.3182 40.9224C42.3972 40.9081 42.4738 40.865 42.5241 40.7908C42.5337 40.7764 42.5408 40.762 42.5528 40.7453C42.5815 40.6854 42.5863 40.6184 42.5768 40.5561L42.5959 40.5513ZM38.5594 40.8291C38.5594 40.8434 38.5594 40.8506 38.5594 40.865C38.5594 40.8721 38.5594 40.8793 38.5594 40.8889C38.5594 40.8937 38.5594 40.9033 38.5594 40.9105V40.9344C38.5594 40.9559 38.5594 40.9751 38.5594 40.9919C38.4757 43.8265 36.1462 46.0985 33.2924 46.0985C30.4386 46.0985 28.114 43.8265 28.0254 40.9919C28.0254 40.9631 28.0254 40.9392 28.0254 40.9105V40.8314C28.0254 40.8003 28.0254 40.774 28.0254 40.7453C28.0254 40.7357 28.0254 40.7261 28.0254 40.7165C28.0828 37.8604 30.4219 35.562 33.2924 35.562C36.1629 35.562 38.502 37.8604 38.5594 40.7165C38.5594 40.7261 38.5594 40.7357 38.5594 40.7453C38.5642 40.774 38.5642 40.8003 38.5642 40.8314L38.5594 40.8291Z" fill="#005BAA"/>
<path d="M44.4561 15.0517L44.4346 14.9129L43.7834 11.2355C43.7618 11.0967 43.6852 10.9746 43.5679 10.8908C43.4458 10.807 43.3046 10.7783 43.1705 10.807L41.7723 11.0512C41.7101 11.0584 41.6502 11.0656 41.576 11.0751C39.8092 11.3098 39.4309 10.0576 39.407 10.0696C39.2992 9.84935 39.1771 9.63388 39.055 9.4232C39.0622 9.41841 39.0431 9.39207 39.0095 9.35377C38.9856 9.30828 38.964 9.27476 38.9401 9.23406C38.8707 9.10478 38.7821 8.91325 38.7438 8.67145C38.739 8.62117 38.7318 8.5709 38.7294 8.51583C38.7198 8.42725 38.7198 8.33388 38.7294 8.23572C38.7294 8.21178 38.7294 8.19263 38.7342 8.17587C38.7438 8.09926 38.7629 8.01786 38.7797 7.94125L40.5513 5.83204C40.5657 5.81289 40.5825 5.79134 40.5944 5.7674C40.6495 5.67403 40.6782 5.56151 40.671 5.4418C40.6639 5.38674 40.6495 5.33167 40.6303 5.29097C40.5992 5.20718 40.5513 5.13536 40.4867 5.08508L37.5132 2.59282C37.4103 2.50423 37.2738 2.45635 37.1302 2.47072C36.9841 2.48508 36.8596 2.55451 36.771 2.65746L35.8565 3.74677C35.8158 3.78747 35.7703 3.83536 35.7224 3.89042C34.511 5.20478 33.4217 4.48895 33.4169 4.49852C33.0841 4.35967 32.7489 4.23757 32.4018 4.12504C32.1432 4.00294 31.7889 3.76114 31.5639 3.28232V0.533887C31.5639 0.397423 31.5136 0.260959 31.4083 0.158012C31.3101 0.0550659 31.1736 0.00239563 31.0396 0.00239563H27.1587C27.0223 0.00239563 26.8882 0.05746 26.7852 0.158012C26.6847 0.260959 26.632 0.397423 26.632 0.533887V1.95359C26.6272 2.01105 26.6224 2.08048 26.6177 2.1523C26.541 3.93352 25.2482 4.08674 25.2482 4.09392C24.8891 4.20644 24.5324 4.33572 24.1924 4.47458C23.9123 4.54162 23.5053 4.56795 23.048 4.35967L21.2812 2.25285C21.1926 2.14751 21.0657 2.0733 20.9221 2.06372C20.7784 2.05175 20.642 2.09724 20.539 2.18582L17.5679 4.67569C17.5057 4.72836 17.4506 4.80018 17.4219 4.87919C17.398 4.92946 17.386 4.98213 17.3788 5.0372C17.3692 5.15211 17.398 5.26703 17.453 5.3628C17.4722 5.38434 17.4865 5.40828 17.4985 5.42504L18.4154 6.50957C18.4514 6.55985 18.4849 6.61252 18.5304 6.66758C18.8655 7.1081 19.014 7.50552 19.0523 7.84069C19.0571 7.85985 19.0571 7.879 19.0571 7.88858C19.0714 7.98913 19.0714 8.0825 19.0619 8.17108C19.0571 8.22136 19.0523 8.27403 19.0475 8.31952C18.9733 8.76961 18.7315 9.03056 18.7315 9.03775C18.528 9.35137 18.3412 9.67697 18.1689 10.0074C17.9965 10.2372 17.6996 10.5173 17.216 10.6538L14.5035 10.1773C14.3718 10.1534 14.2306 10.1821 14.1108 10.2659C13.9935 10.3449 13.9145 10.4718 13.8906 10.6059L13.2442 14.2832L13.2202 14.4245C13.1987 14.5322 13.2131 14.6447 13.2609 14.7429C13.2777 14.7716 13.2897 14.798 13.3088 14.8219C13.3902 14.944 13.5171 15.0182 13.6512 15.0422L15.0541 15.2888C15.1068 15.3031 15.1714 15.3199 15.2409 15.3366C16.9838 15.7197 16.9024 17.0245 16.9024 17.0245C16.9024 17.0245 16.9096 17.0245 16.9239 17.0197C16.967 17.3668 17.0269 17.702 17.0987 18.0348C17.0987 18.0492 17.0987 18.0659 17.1059 18.0779V18.0875C17.1131 18.1617 17.1178 18.2407 17.1059 18.3293V18.3556C17.1059 18.4131 17.0987 18.4753 17.0867 18.5376C17.0484 18.7506 16.9646 18.9948 16.7946 19.2414L14.4125 20.6156C14.3167 20.6731 14.2377 20.7593 14.1922 20.8646C14.1779 20.8886 14.1731 20.9125 14.1683 20.9293C14.1276 21.0729 14.1492 21.2166 14.2186 21.3363L14.2258 21.3506L16.1554 24.6952C16.2248 24.8125 16.3374 24.9011 16.4786 24.9418C16.6199 24.9801 16.7635 24.9561 16.8808 24.8867L18.1138 24.1781C18.1665 24.1517 18.2239 24.1254 18.2886 24.0919C19.8735 23.2659 20.6539 24.3073 20.6659 24.2954C20.8455 24.4606 21.0322 24.6234 21.2189 24.779C21.2189 24.7838 21.2477 24.8029 21.286 24.834C21.3243 24.8652 21.3674 24.8963 21.4105 24.9298C21.5828 25.0854 21.827 25.3631 21.9348 25.7965C21.9396 25.8132 21.9491 25.842 21.9491 25.8539C21.9659 25.9258 21.9779 26.0024 21.9851 26.0814L21.9587 26.1508L21.9108 26.2753L21.0561 28.6335L21.0466 28.6694C20.9987 28.7915 21.0011 28.9351 21.0609 29.0716C21.0705 29.0812 21.0753 29.0956 21.0897 29.1099C21.1471 29.2224 21.2477 29.3038 21.3602 29.3493L25.0064 30.6733C25.1333 30.7211 25.277 30.7164 25.4086 30.6541C25.5427 30.5919 25.6385 30.4841 25.6839 30.3549L26.17 29.0213C26.1939 28.9663 26.2202 28.9088 26.2466 28.8394C26.9337 27.1898 28.1978 27.4843 28.1978 27.4604C28.3917 27.47 28.5832 27.4747 28.7771 27.4747C28.8274 27.4747 28.8849 27.47 28.9351 27.47C28.9351 27.4795 29.7013 27.3407 30.3572 27.9895L31.2981 30.5775C31.3436 30.702 31.4418 30.8145 31.5734 30.872C31.7051 30.9342 31.8512 30.9342 31.9757 30.8887L35.6219 29.56C35.7392 29.5193 35.8397 29.4331 35.8996 29.3206C35.9092 29.3086 35.914 29.2967 35.9187 29.2871C35.9834 29.1554 35.9834 29.0118 35.9403 28.8801L35.9307 28.849L35.4567 27.5466C35.4375 27.4867 35.4184 27.4269 35.4016 27.3598C35.337 27.1539 35.2939 26.9672 35.2747 26.7948C35.2699 26.7445 35.2628 26.6919 35.2628 26.6488C35.2628 26.6344 35.2628 26.6224 35.2628 26.6105C35.258 26.5171 35.258 26.4309 35.2628 26.3495V26.3328C35.2628 26.3328 35.2628 26.3112 35.2675 26.2968C35.3561 25.4062 36.0025 25.0591 36.0025 25.0423C36.1989 24.8939 36.3904 24.7383 36.5771 24.5803C36.5819 24.5898 37.0847 23.9889 37.9992 24.0631L40.379 25.4374C40.4963 25.5044 40.6399 25.5259 40.7836 25.4924C40.9224 25.4541 41.0373 25.3608 41.1068 25.2434L43.0388 21.9013L43.0436 21.8893C43.1154 21.7648 43.1346 21.6259 43.0963 21.4847C43.0915 21.456 43.0819 21.432 43.0723 21.4153C43.0244 21.3027 42.9478 21.2213 42.8473 21.1639L41.6191 20.4552C41.5712 20.4193 41.5138 20.3858 41.4563 20.3451C40.7189 19.8783 40.4628 19.3492 40.3933 18.9326C40.3837 18.8799 40.379 18.8368 40.3742 18.7865V18.7817C40.3646 18.6692 40.3694 18.5735 40.379 18.4873C40.379 18.4681 40.379 18.4538 40.3837 18.4346C40.4077 18.2742 40.4388 18.1832 40.434 18.1784C40.4843 17.939 40.5322 17.6972 40.5753 17.453C40.5849 17.453 40.5801 16.6773 41.327 16.1458L44.0395 15.667C44.1712 15.6479 44.2957 15.5689 44.3795 15.4492C44.3987 15.4228 44.4106 15.3965 44.4274 15.3725C44.4729 15.2696 44.4872 15.1619 44.4657 15.0517H44.4561ZM37.6569 15.5186C37.6569 15.5401 37.6569 15.5593 37.6521 15.5737C37.6569 15.5856 37.6521 15.6048 37.6521 15.6167C37.6569 15.6335 37.6569 15.6479 37.6521 15.6574V15.6981C37.6521 15.7317 37.6521 15.7628 37.6473 15.7987C37.5036 20.5773 33.5797 24.4055 28.7676 24.4055C23.9554 24.4055 20.0339 20.5749 19.8878 15.7987C19.883 15.7508 19.883 15.7053 19.883 15.6574C19.883 15.6479 19.883 15.6335 19.883 15.6167C19.883 15.5808 19.883 15.5545 19.883 15.5186C19.883 15.4683 19.883 15.4228 19.8902 15.3749C19.8854 15.3606 19.8854 15.3438 19.8902 15.3271C19.9884 10.5053 23.9267 6.63167 28.7699 6.63167C33.6132 6.63167 37.5515 10.5053 37.6497 15.3271C37.6497 15.3438 37.6545 15.3606 37.6497 15.3749C37.6593 15.4228 37.6593 15.4683 37.6593 15.5186H37.6569Z" fill="#005BAA"/>
</g>
<defs>
<clipPath id="clip0_31_246">
<rect width="44.4681" height="49.9602" fill="white"/>
</clipPath>
</defs>
</svg>
